<?xml version="1.0" encoding="utf-8"?>
<!-- Generator: Adobe Illustrator 26.0.2, SVG Export Plug-In . SVG Version: 6.00 Build 0)  -->
<svg version="1.1" id="Capa_1" xmlns="http://www.w3.org/2000/svg" xmlns:xlink="http://www.w3.org/1999/xlink" x="0px" y="0px"
	 viewBox="0 0 514.3 223" style="enable-background:new 0 0 514.3 223;" xml:space="preserve">
<style type="text/css">
	.st0{fill:#0D0A0A;}
	.st1{fill:#F6E90C;}
	.st2{fill:#EA7904;}
	.st3{fill:#E87907;}
	.st4{fill:#088CD0;}
	.st5{fill:#DE0F24;}
	.st6{fill:#0C0C13;}
	.st7{fill:#8EB84E;}
	.st8{fill:#ECE41E;}
	.st9{fill:#1288C7;}
	.st10{fill:#D11527;}
	.st11{fill:#361106;}
	.st12{fill:#121919;}
	.st13{fill:#D17D29;}
</style>
<g>
	<path class="st0" d="M378.1,0c19.1,6.7,19.3,28.6,11.3,39.4c-5.8,7.8-15.7,11-26.1,8c-9.1-2.6-14.5-9.5-15.1-19.5
		c-0.2-3.5-0.1-7,0.6-10.4c1.5-7.3,5.7-12.6,12.5-15.7c0.9-0.4,2.4-0.2,2.5-1.8C368.6,0,373.4,0,378.1,0z M371.4,7.4
		c-10,0.8-15.4,5.8-16.2,17.8c-0.6,8.6,6.4,15.6,15,15.2c11.8-0.6,16.9-5.8,16.8-14.3C386.9,15.1,380.2,7.5,371.4,7.4z"/>
	<path class="st0" d="M103,131.1c-1.1-14.6,0.7-27.8,5.2-40.7c4.5-12.9,10.9-24.8,21.2-33.9c13.6-12,29.1-16.7,46.8-10.8
		c10.6,3.6,17.8,11.3,23.2,20.8c0.6,1.1,1.2,2.2,1.8,3.3c0,0.1,0.2,0.1,0.5,0.1c0.8-2.8,1-5.5,0.4-8.3c-0.9-4.6,1-7.8,4.9-10
		c8.6-4.6,17.7-5.7,27.2-2.9c3.3,1,5.5,3.1,6.8,6.5c1.6,4.2,3.3,8.4,5.2,12.4c1.5,3.2,3.3,3.3,4.9,0.1c1.6-3.2,2.7-6.7,4-10.1
		c3.3-8.7,5.4-9.9,14.6-9.2c5.7,0.5,11,1.9,16.5,3.4c3,0.8,3.7,2.7,3.6,5.6c-0.8,24.3,0.6,48.4,4.2,72.5c0.1,0.6,0.2,1.2,0.5,2.4
		c1.1-2.3,1-4.1,1.1-5.8c1.6-23.7,0.9-47.4-1.2-71.1c-0.7-8,1.9-12.5,9.5-14.7c19.5-5.5,37.8-3.3,54.2,9.3c2,1.5,3.1,4.6,5.1,5.2
		c1.6,0.5,3.6-2.4,5.9-3.1c7.2-2.1,14.6-2.2,21.9-0.8c2,0.4,2.8-0.1,3.6-1.8c4.7-9.3,18.2-16.5,28.6-15.1c3.3,0.4,5.3,2.2,6.2,5.5
		c2.5,9.1,4.8,18.3,7.9,27.3c1.5,4.4,3.1,8.7,5.8,12.5c3.2,4.6,6.1,4.6,8.5-0.5c5.2-11.1,10.2-22.2,12.8-34.3
		c2-9.3,6.6-11.9,15.4-8.3c8.8,3.6,16,9.6,22.4,16.5c1.9,2.1,2.2,4.7,1.5,7.4c-1,4-3.1,7.3-5.4,10.6c-4.6,6.5-9.2,13.1-13.9,19.5
		c-11.7,15.9-11.5,31.7-0.2,47.7c7,10,14.8,19.2,23.7,27.5c8.7,8.2,8.8,11.2-0.9,18.8c-7.9,6.2-16.8,10.9-26.8,12.6
		c-6.1,1-8.2,0.3-9.9-6.2c-3.2-12.1-7.3-23.8-12.6-35.2c-1.2-2.6-2.5-5.2-4.4-7.4c-2.5-3-4.2-2.8-5.6,0.9
		c-2.2,5.7-3.2,11.8-4.2,17.8c-1.4,8.6-2.6,17.3-3.8,25.9c-1.6,11.3-6.3,13.5-16,7.5c-3.1-1.9-6-4.1-8.7-6.5
		c-1.9-1.7-3.8-2.1-6.2-1.4c-3.5,1-7,2-10.4,2.9c-14,3.8-17.6,1.9-21.7-12.3c-20.5,26.4-45.8,25.2-73.2,13.1
		c-0.7,3.8-3.4,5.8-6.6,7.1c-10.5,4.2-21.3,5.1-32.3,1.7c-6.6-2.1-8.3-5.1-8-12c1-18,3.4-35.8,4.7-53.7c0.3-4.1,0.1-8.3-0.5-12.3
		c-0.3-1.6-0.2-4-2.2-4.3c-1.6-0.2-2.4,1.9-3.1,3.3c-1.2,2.3-2.2,4.8-3.4,7.1c-2.7,5-7.1,5.1-10,0.2c-1.3-2.2-2.2-4.7-3.4-7.1
		c-0.8-1.6-1.9-3.2-4-2.8c-2,0.3-2.1,2.2-2.3,3.8c-1,7,0.1,14,0.6,20.9c0.8,10.6,1.9,21.1,1.8,31.8c0,8.8-3.8,14.7-11.8,18.2
		c-6.7,2.9-13.7,4.7-21,4.7c-8.5-0.1-13.2-4.6-13.8-13.1c-0.6-8,1.3-15.6,2.8-23.3c0.7-3.3,1.3-6.6,1.9-9.9c0.1-0.7,0.4-1.6-0.4-2
		c-0.9-0.4-1.3,0.5-1.8,0.9c-2.7,2.4-5.2,5.1-8,7.3c-9,7.3-19.3,10.8-30.9,10.2c-1.2-0.1-2.4-0.5-3.6,0.3c2.8,1.8,5.5,3.4,8.1,5.2
		c3.9,2.8,4.8,5.7,3.3,10.1c-4.6,14.3-28.9,28.8-43.6,26.1c-6.7-1.2-11.7-5-14.6-11.1c-8.5-17.8-17.8-35.2-25.8-53.2
		c-1-2.4-2.3-4.7-3.6-6.9c-0.6-1-1.5-2.3-2.9-2c-1.4,0.3-1.8,1.7-2,2.9c-1.4,5.8-1.5,11.6-1.2,17.5c0.7,14.9,4,29.4,8.1,43.7
		c0.5,1.7,0.9,3.4,1.2,5.1c1.2,7.5-1.2,10.6-8.7,11.9c-7.5,1.3-14.9-0.2-22.3-1.1c-5.2-0.7-10.2-2.2-15-4.5
		c-7.2-3.4-13.3-11.6-10.8-22c3.2-13.2,7.2-26.2,10-39.5c5.5-25.2,9-50.6,7.8-76.5c-0.5-11.9-2.2-23.6-5.5-35.1
		c-2.3-8-0.6-14.3,6-19.6c7.9-6.3,16-12.5,25.5-16.1c10.4-3.9,13.3-1.9,12.9,9.2c-0.4,10.8-3.2,21.2-4.8,31.8
		c-0.7,4.9-1.2,9.9-1.7,14.9c-0.2,1.8-0.1,3.8,0.3,5.6c0.7,3.4,2.6,4,5.3,1.8c1.4-1.2,2.7-2.6,3.9-4C90,53.3,99.6,37.9,106.8,21
		c3.7-8.8,5.2-9.8,14.7-9.1c5.9,0.4,11.7,1.1,17.3,3c1.9,0.6,3.8,1.4,5.4,2.4c3.4,2.1,3.8,4,1.6,7.4c-3,4.8-6.7,9-10.3,13.3
		c-12.8,15.2-25.8,30.2-37.3,46.4c-1.4,2-2.8,4.1-4.2,6.2c-7.2,11.5-6.7,20.6,1.6,31.4C97.8,124.9,100.1,127.5,103,131.1z M360,61.6
		c-0.2-0.3-0.5-0.6-0.7-0.9c-0.5-0.3-0.9-0.5-1.4-0.8c0-1.5-1.3-1.7-2.2-2.2c-0.4-1.1-1.3-1.7-2.3-2.2c-3.4-2.9-7.4-4.7-11.5-6.5
		c-10.5-4.7-21.1-5.1-32-2.4c-2.4,0.8-5.4,0.7-6.2,4.1c-2.9,0-2.9,1.9-2.9,4.1c0,2.2,1.4,2.3,3,2.2l0,0.1c0.1,1.1-0.8,1.3-1.5,1.8
		c-0.1,0.2-0.3,0.4-0.5,0.5c-1.2,1.5-2,3,0.2,4.4c0.6,9.6,1.6,19.1,1.7,28.7c0.1,8.2,0.1,8.2,8.3,9.8c7.5,2.1,15,2.1,22.4,0
		c3.3-0.6,6.5-1.2,9.8-1.7c2-0.6,4.6,1.5,6-1.5l0,0c1.5,0,3,0,4.5,0c3.1,0.1,4.6-1.4,4.5-4.5v0c1.6-0.1,1.5-1.2,1.4-2.3l0,0
		c1.5-0.5,1.7-1.7,1.6-3.1c-0.1-0.2,0-0.5,0.2-0.7c1.7-0.3,1.3-1.5,1.2-2.7c0.1-0.4,0.1-0.7,0.2-1.1c1.5-2,2.1-13.3,0.8-15.4
		c-0.2-0.2-0.7-0.2-1-0.3l0-0.3c0.1-2.4-0.8-4.3-2.8-5.7l-0.1,0C360.8,62.4,360.8,61.7,360,61.6L360,61.6z M111.8,183.5
		c0.3-0.2,0.6-0.3,0.9-0.5c0.2-0.1,0.5-0.2,0.7-0.2c1.4,0,2.9,0.1,4.1,1c-0.9,0.4-1.8,0.8-2.7,1.3c-0.2,0-0.3,0.1-0.4,0.2
		c-0.5,0.2-1.1,0.4-1.6,0.7c-0.9-0.1-1.5,0.3-1.5,1.3c-1.3,0.3-2.6,0.6-3.9,0.9c-0.8,0-1.6-0.1-2.1,0.7c-1.7,1.4-1.8,2.9-0.5,4.7
		c1.7,2.4,3.1,5.1,4.8,7.6c3.2,4.5,7.7,6.1,13.1,4.7c8.9-2.3,15.9-7.6,22.4-13.9c4-3.9,4.1-8.2-0.4-11.7c-3.1-2.3-6.3-4.5-9.5-6.7
		c-1.9,0-1.9-2.4-3.6-2.7l-0.1-0.1c-0.1-1-0.6-1.4-1.6-1.3l0,0c0-1.6-1.2-1.6-2.2-1.6c-1.2,0-2.1-0.2-2.2-1.7
		c-0.5-1.3-1.7-2.1-2.6-3c-4.5-4.8-10-8.4-14.1-13.7c0-0.9-0.6-1.1-1.3-1.1l0,0c-0.1-0.5,0-1.3-0.8-1.2c-0.3,0-0.4,0.7-0.7,1
		c-0.2,0.1-0.4,0.1-0.7,0.1c-1.4,0.2-3.2-0.9-3.8,1.4c-5.2,1-9.7,3.8-14.4,6.1c-1.4,0.7-1.9,1.5-0.9,3.2c2.6,4.6,4.9,9.4,7.4,14.1
		c3.3,6.1,3.3,6.1,9.5,5.1c-0.3,0.7-0.5,1.4-0.8,2.1c-0.9,0.4-1.8,0.7-2.7,1.1c-2.9,1.8-1,3.7,0.4,4.8c1.9,1.6,4.2,2.3,6-0.5l0,0
		c1.2,0,2.7,0.6,3.1-1.3c0.2-0.1,0.5-0.1,0.7-0.2C110.5,184.4,111.5,184.6,111.8,183.5L111.8,183.5z M474.9,133.4
		c0.5-0.1,1-0.1,1.1-0.7c0-0.1-0.3-0.4-0.4-0.4C475,132.4,475,133,474.9,133.4c-0.3,0-0.7,0.1-1,0.2c-0.2,0-0.4-0.1-0.5-0.3
		c-0.9-1.3,0.5-3.3-1.3-4.4c-0.2-0.2-0.3-0.4-0.3-0.6c-0.5-1-1.7-1.7-1.4-3.1c-1.9-5.1-2.4-10.4-1.4-15.7c0.4-2.3,0-3.3-2.7-4
		c-5.6-1.3-11.1-2.6-16.8-3.2c0-0.7,0-1.3,0-1.9c4.9,0.6,9.7,1.3,14.4,2.7c6.1,1.8,6.6,1.6,8.6-5c-1.9-0.5-3.8-1.1-5.7-1.6
		c1.1-1.1,2.5-0.4,3.7-0.6c2.9,0.8,4.5-0.7,5.9-3.1c4.8-8.5,11.2-15.9,16.7-23.9c2.6-1,0.7-4.3,2.9-5.5c0.5-2.1,2.6-4.2,0-6.4
		c-0.5-0.8,1.4-3-1.4-2.3c0-1.1,0-2.2-1.5-2.2c-4.4-3.7-8.4-7.9-13.9-10c-5-1.9-7.7-0.8-9.6,4.1c-0.7,0.6-0.4,1.4-0.5,2.2
		c-2.6,3.7-2.3,4.6,1.8,5.6c4.3,1.1,8.6,2.1,12.5,4.2c0.5,0.9,0.4,1.4-0.8,1.4c-4.4-1.6-8.9-2.5-13.4-3.5c-2.1-0.5-3.2-0.1-3.8,2.1
		c-0.6,2.2-1.6,4.4-2.4,6.6c-1.8,0.4-1.2,1.8-1.3,3c-0.1,0.2-0.1,0.5-0.1,0.8c-1.9,0.4-1.2,1.9-1.3,3.1l0,0
		c-2.6,0.3-1.3,2.4-1.6,3.7c-0.5,3.4-2.4,6.2-4.3,8.9c-4.2,5.8-7.6,5.9-12.6,0.7c-0.8-0.8-1.5-1.7-2.1-2.6
		c-4.3-6.3-7.2-13.3-9.4-20.5c-0.3-2.4,0.9-5.3-2.4-6.6c0,0,0.1,0.1,0.1,0.1c-0.8-1.6-0.7-3.2-0.7-4.9c0-1.2,0.2-2.5-1.6-2.6
		c-0.9,0-1.9,0-2.8,0c-0.5-0.2-1-0.4-1.5-0.7c2.2,0,3.5-1,2.9-3.2c-0.6-2.1-0.8-5.3-4.1-4.7c-8,1.5-15.2,4.5-20.1,11.6
		c-0.5,0.3-0.6,0.7-0.2,1.2c0.2,0.1,0.4,0.2,0.5,0.4c0,1.5,0,2.9,0,4.4c0,1,0.5,1.4,1.5,1.3l0,0c0.9,1.5,0.8,3.7,2.8,4.6
		c8.4,8.6,15.1,18.3,20.3,29c0.3,0.8,0.8,1.4,1.6,1.7c-0.6,1.6,1.1,2.9,0.8,4.5c-0.3,0.7-0.2,1.3,0.6,1.7c0.7,0.7,0.3,1.3-0.1,1.9
		c-1.4,5-0.2,10-0.7,15c-0.3,3.7-1.2,7.2-2.9,10.6c-2.5,0.5-1.3,2.5-1.5,3.9c0,0.2-0.1,0.4-0.2,0.6c-1.4,0.5-2.1,1.1-0.4,2.1
		c0.2,0,0.4,0.1,0.5,0.2c0.8,1,1.9,0.7,3,0.7l0,0c0,1.1-0.6,1.4-1.6,1.6c-1.7,0-4-0.9-4.2,1.6c-0.3,2.5,2.4,1.6,3.6,1.8
		c9.6,1.3,19.1,0.7,28.5-1.7c0.4,2.8,0.8,5.7,4.6,5.6h0c0.6,1.1,0.2,3,2.2,3.1c3.3,3.3,4.4,7.7,5.9,11.8c1.2,3.3,2.1,6.8,6.7,6.4
		c0.8,2-1,1-1.6,1.4c-0.7,0.3-2.1-0.3-1.5,1.3c0.6,1.5,0.5,3.6,2.9,3.8c2,0.2,4,0.3,6,0.5c7.2,0.4,14.2-0.2,21.1-2.1
		c0.9-0.2,2.7-0.1,2.2-1.8c-0.4-1.4-1.3-2.8-3.3-2.4c-1.1,0.2-2.2,0.4-3.3,0.6c-3.2-0.2-3.2-0.2-2.4-1.5c4.8-2,4.7-2,1.4-6.1
		c-5.6-6.9-12.2-12.9-16.3-20.9c-0.1-1.2,0.5-2.8-1.6-3c-0.2-0.1-0.2-0.3-0.2-0.5C474.7,134.1,474.8,133.8,474.9,133.4z
		 M268.7,179.8L268.7,179.8c0.4,2.6,2.4,1.3,3.7,1.5h0c-0.1,1-0.6,1.5-1.6,1.6c-0.3,0.1-0.5,0-0.7-0.2c-0.4-0.2-0.7-0.3-1.1-0.5
		c-1.1-0.3-2.3-0.7-3.4-1c-0.2-0.3-0.5-1-0.7-1c-0.8,0-0.7,0.7-0.8,1.2c0,2.2,0.1,4.4,0.1,6.6c-1.7,3.7-1.2,8.1,1,10.1l0.1,0.1
		c6.8,4.3,13.9,3.8,21.2,1.8c4.5-0.4,8.4-1.7,10.4-6.3c0.8-1.5,0.4-2.8-0.3-4.2c-0.1-0.7-0.2-1.3-0.3-2c-0.2-0.2-0.4-0.2-0.6-0.3
		c-0.8,0-1.6-0.1-2.4-0.1c-1.5-1.4-3.6,0.1-5.1-1c2.6-1.3,5.7,1.1,8.1-1.4c-0.1-3.4-1.4-5.7-5.4-5c-1,0.2-1.9-0.3-2.7-0.8
		c1.7-1.3,3.6-0.4,5.4-0.6c0.9-0.1,2.2,0.2,2.6-1c0.4-1.2-0.1-2.2-1.2-2.8c-1.7-7.7-2.5-15.6-4.7-23.2c0-0.9,0-1.9,0-2.8
		c0.2-1-0.4-1.7-0.7-2.6c-0.6-1.3,0-4-2-3.8c-6.7,0.6-13.4,1.7-20.1,2.6c-0.2,0.1-0.2,0.3-0.1,0.5c0,0.7,0,1.3,0,2
		c-0.1,0.9,0.6,1.8-0.2,2.6c-0.7,4.5-0.7,9-0.6,13.6c0.5,3-2.6,6.6,1.4,9c0,0.6,0,1.1-0.1,1.7c-4.5-0.6-3,2-2.2,4.2
		C266.2,179.7,267.3,180,268.7,179.8z M181,101.9c-1.5,0-3,0-4.6,0c-0.5-0.1-1.1-0.3-1.6-0.4c-2-0.5-1.2,1.1-1.3,1.9
		c-0.5,2.3-1.1,4.7-1.6,7.1c-0.9,1.5-1.8,3.1-2.7,4.6c-0.2,0-0.2,0.1-0.2,0.3c-0.9,1-1.9,2-2.8,2.9c-6.8,6.8-14.8,9.2-24.1,5.9
		c-5-2.9-7.7-7.4-9.4-12.9c-2.3-7.4-2-14.8-0.7-22.2c0.4-2.4-0.5-3.2-2.3-3.7c-3.6-0.8-7.2-1.6-10.8-2.2c-1.4-0.3-2.7,0-3.3,1.7
		c-2.2,5.9-4.6,11.8-5,18.2c-1.9,7.9-1.9,15.7,0,23.6c0,0.9,0.1,1.8,0.1,2.7c0.3,1.8-1.1,4.1,1.4,5.3c0.1,0.2,0.1,0.4,0.1,0.7
		c0,0.7-0.2,1.5,0.5,1.9c0.8,0.4,0.8-0.4,1-0.9c0.8-0.2,1.7-0.3,2.5-0.6c9.2-4.3,19-6.7,28.9-8.5c14-1.6,28-1.5,42,0.4
		c6.7,1.5,7.6,1,9.5-5c0.3-1,0.7-1.9,1-2.8c2.7-2.4,1.7-6,2.8-8.9c0.6-1.6,1-4.1-0.5-6c-0.2-0.1-0.5-0.2-0.8-0.3
		c-0.5-1.8-2-1.2-3.1-1.2c-5-0.1-9.9-0.1-14.8-0.1l0,0C181,102.9,180.9,102.4,181,101.9c0.4-0.1,0.8-0.2,1.2-0.3
		c1.4,0.2,2.8,0.5,4.1,0.7c0.7,0.6,1.4,0.5,2.2,0.3c3,0,6,0,8.9,0c1.3,0,3,0.7,2.8-1.8c0-1.1,0-2.1,0.1-3.2c0-0.9,0.9-2.5-1.3-1.9
		c-7,0.5-14.1,1.2-21-1.2c-1-0.3-2.6-0.7-2.9,1.2c-0.2,1.5-0.8,3.1,1.4,3.9c0.7,0.3,1.8-0.2,2.2,0.8c0.2,0.6,0.8,0.8,1.4,0.8
		c0.3,0,0.6,0.1,0.8,0.2C180.9,101.5,180.9,101.8,181,101.9z M318.2,130.4c0.2-0.5,0.5-1,0.8-1.5l0.2-0.1l0.2,0c3-1,6-1.6,9.2-1.6
		c0.3,0,0.6-0.7,0.8-1.1c2.5-0.6,5-1.2,7.4-1.7c3.6-0.3,7.1-0.6,10.6-1.4c0.5,0,0.9,0,1.4-0.1c5.1,0,10.2,0,16.2,0
		c-2.2-2.5-3.8-3.8-5.7-4.8c-2.4-2.2-5.4-3.5-8.1-5.1c-1.9-1.2-4.6-2-4.3-5.1c1.1-0.7,1.1-1.8,1.1-2.9c0.3-0.2,0.6-0.5,0.9-0.7
		c2.7,0.1,3.7-2,5-3.8c-2.4,0.4-4.9,0.2-6.6,2.2c-2-0.1-4-0.1-5.9,0.5c-3.9,1.3-7.9,1.7-11.9,1.8c-7.7,0.1-15.4,0.4-23-1.6
		c-1.1-0.3-2.2-0.7-2.5,1.1c-0.2,1.5,0.2,2.4,1.7,2.6c2.7,0.5,5.4,1.4,8.2,1.5c9,0,18,0.2,26.8-2.2c0.9,0.1,2.1-0.1,2.2,1.3
		c-2.7-0.4-5,1.1-7.5,1.7c-8,1.2-16,0.6-24,0.6c-1.8-1.2-3.9-0.5-5.9-0.7c-0.2-0.1-0.4-0.3-0.6-0.3c-0.2,0-0.4,0.3-0.4,0.5
		c0,7.7,0,15.4,0.1,23.1c0,0.2,0.5,0.5,0.8,0.7c1.1,0.2,2.3-0.3,3.1,0.8c-1,0.4-2.1,0.8-3,1.3c-1.8,1-1.8,3.2-0.1,4.8
		c0,0.7,0.1,1.4,0.1,2.1h0c-0.8-0.1-1.4,0.1-1.4,1.1c-0.1,2.6-0.1,5.2-0.2,7.9c-1.3,0.2-1.4,1.1-1.4,2.2c0,7.1,0,14.1,0,21.2
		c0,1.1,0.2,2,1.5,2.1c0,0,0,0,0,0c0,0.9,0,1.7,0,2.6c0.1,0.2,0.1,0.3-0.1,0.5c-1.1,0.1-1.5,0.7-1.4,1.7c0.1,0.9,0.7,1.2,1.5,1.2
		l0.1,0.2l-0.1,0.2c0.2,0.3,0.4,0.8,0.6,0.9c4.4,0.6,8.9,0.3,13.3,0.2c0.7,0,0.9-0.8,0.9-1.4l0,0c2.8-0.4,5.9,1.4,8.3-1.4l0.3-0.1
		l0.3,0c2.5,0,5.1,0.1,7.6,0.1c-0.2,0.4-0.5,0.8-0.7,1.3c-0.5,0.1-1,0.2-1.5,0.3c-0.8,0-1.6-0.2-2.3,0.5c-0.5,0.1-0.9,0.2-1.4,0.2
		c-0.8-0.1-1.7-0.2-2.3,0.5c-0.7,0.1-1.5,0.2-2.2,0.3c-1.3,0-2.7-0.5-3.8,0.6c-0.5,0.1-0.9,0.1-1.4,0.1c-1.5,0.1-3.2-0.5-4.6,0.6
		c-3.9,0.3-7.7,0.7-12,1.1c11.1,7.9,28.3,11.9,40.6,9.3c14.6-3.1,24.8-11.9,31.1-25.3c0.7-1.2-0.8-2.2-0.4-3.4
		c1-1.9,2.1-3.7,3.2-5.7c-3.2-1.3-5.2,1.2-7.6,1.9c-1.2,0.1-2.7-0.6-3.1,1.3c-0.2,0.1-0.5,0.1-0.8,0.2c-1.3,0.3-3.1-0.9-3.7,1.3
		c-2.2,0.8-4.4,1.7-6.7,2.4c-11.3,3.4-22.7,6.7-34.5,8.3c-1.3,0-2.6-0.1-3.8-0.1c0-0.4,0-0.8,0-1.2c0.5-0.1,1.1-0.2,1.6-0.2
		c1.6-0.2,4.9,0.8,1.9-2.7c-0.8-0.9-0.4-2.2-0.4-3.3c0-6.5,0-13,0-19.4c0-4-0.1-7.9-0.1-11.9c0.2-2.2-2.1-1.1-2.9-2.1
		c3.6-1.5,3.9-2.2,2.4-5.4C319.3,130.5,318.7,130.5,318.2,130.4z M64.7,41.9L64.7,41.9c1.7-4,1.2-4.6-3.7-4.4l0,0c0-0.5,0-1,0-1.5
		c0.7-0.1,1.5-0.2,2.2-0.2c1.1,0.2,2.3,0.6,2.2-1.3c0.6-5.5,1.3-11.1,1.8-16.6c0.3-3.6-1-4.5-4.4-3.4c-0.9,0.3-1.9,0.7-2.7,1.2
		c-7.9,4.5-15.1,9.8-21.6,16.2c-2.2,1.2-1.5,3.1-1.3,4.9c0.4,1.8-1.3,4.1,1.4,5.3c1.1,2.7,3.5,0.8,5.3,1.5c0.8,0.1,1.5,0.1,2.3,0.2
		c0,0.4,0,0.8,0,1.2c-6.7,0.7-6.5,0.6-5.1,7.5c1,5.2,2.4,10.5,2.2,15.9c0,1.8,0,3.7,0,5.5c0,1.2,0.2,2.3,1.6,2.6
		c1.2,0.2,2.5,0.6,2.9-1.2c0.5-0.1,1-0.1,1.5-0.2c1.9,0,3.8,0.2,5.6,0c1.4-0.1,3.4,1,4.2-1.3c0.8,0,1.5-0.1,2.2-0.1
		c1.1,1.2,2,0.2,2.6-0.6c0.4-0.6-0.4-0.9-1-1c-0.5-7.8,0.3-15.4,1.2-23.1c0.2-1.4,1.2-3.3-1.2-4c0-0.4,0-0.8,0-1.2
		c0.5-0.2,1-0.4,1.5-0.6l0.2-0.3C64.4,42.5,64.5,42.2,64.7,41.9z M83.6,96.7L83.6,96.7c1.4-1.7,2.6-3.6,3.2-5.8h0
		c1.2-0.5,1.3-1.7,2-2.6c1.4-1.7,1.6-2.9-1.3-3c-5.3-0.2-10.7-0.9-16-1c-6.3-0.2-12.7-0.2-18.9,1.2c-7.4,0.4-8.3,1.3-8.2,8.5
		c0,0.4,0.1,0.7,0.1,1.1c-0.4,5.6-0.8,11.1-1.2,16.7c-1.4,15-4,29.9-6.9,44.6c-0.5,2.5,0.4,3.4,2.6,2.8c5.7-1.4,11.8-1.4,17.3-3.9
		c2.3-1.1,3.4-2.1,3.6-4.8c0.3-4.4,0.5-9,2.7-13.1c2.5-4.7,6.8-5.4,10.8-1.9c2.4,2.1,3.9,4.9,5,7.8c0.9,2.3,2.4,3.1,4.6,2.1
		c4.5-2,9-4.1,13.5-6.2c0.8-0.4,1.9-0.7,1-2.2c-1.8-2.9-3.3-6-6-8.2c-1.7-4.7-4.8-8.7-7.5-12.8l0,0c-2.2-5-3.6-10.1-1.7-15.5l0-0.3
		C83.1,99.2,83.6,98.1,83.6,96.7z M437.2,158.3L437.2,158.3c0-0.3,0.1-0.6,0.2-0.9c1-0.2,2.5,0.6,2.8-1.2c-0.1-0.1-0.1-0.3,0.1-0.4
		c2.9-0.8,1.2-3.1,1.5-4.6c-0.1-2.4,1.4-4.2,2.4-6.1c0.4-0.9,1.2-1.8,0.6-2.8c-0.6-1-1.8-0.7-2.7-0.6c-7.3,0.9-14.6,1.1-21.9-0.6
		c-1.7-0.4-2.6,0.3-3.8,1.6c-2.7,3,0,5.6,0.2,8.4c-0.4,1.4,1.1,1.7,1.4,2.7c-0.1,1.9-0.2,4.3,2,4.6c6.6,1,12.6,3.5,18.6,6.5
		c0.3-2.4,1.2-4.3-0.5-6.1C437.8,158.7,437.5,158.5,437.2,158.3z M182.5,61.5c0-0.5,0-1,0-1.6c1.5-0.7,2.1-1.5,0.4-2.6
		c-1.9-1.2-3.8-2.3-6.2-1.7c-1.7-0.5-3.6,0.5-5.3-0.7c1.2-0.2,2.6,0,3.6-0.7c1.2-0.8,0.2-1-0.6-1.1c-6.6-2.8-13.5-3.2-20.5-2.1
		c-1.2,0.2-3.1,0.3-1.3,2.3c-0.9,0.8-2,0.4-3,0.6l0-0.1c0-0.5,0.1-1,0.1-1.5c0-0.1,0.1-0.2,0.1-0.4c-0.1,0.1-0.1,0.2-0.2,0.3
		c-1.8,0-3.9-0.4-5.5,0.2c-1.8,0.7-5.8,0.4-4.6,4c1.1,3.1-1,1.5-1.8,1.8l-0.1,0c-0.3-1.5-1.6-1.8-2.5-1c-1.9,1.7-4.1,3.1-5,5.7
		c-1.9,2.2-3.8,4.5-5.8,6.8c-1.5,1.8-1.5,3,1.2,3.5c3.4,0.7,6.8,1.6,10.1,2.5c1.4,0.4,2.3,0.2,3.3-0.9c7.5-7.8,16.3-11.1,27-7.4
		c7.1,5.1,10,12.1,9.8,20.6c0,2,1,2.8,2.7,3.4c6.4,2.2,13,2.4,19.6,1.4c1.7-0.2,2.1-1,1.9-2.5c-0.8-6.3-1.7-12.6-5-18.2
		c-0.6-2-1.5-3.8-3.1-5.2c-1.5-2.7-2.6-5.7-6.5-5.7C184.3,61.5,183.4,61.5,182.5,61.5z M93.7,56L93.7,56c-2.2,2-4.1,4.3-5.5,6.9
		c-2.8,3.3-5.5,6.5-8.6,10.2c5.7,0.6,10.8,1.1,15.8,1.8c2.1,0.3,3.2-0.5,4.4-2c3.1-4,6.1-8.2,9.4-12c1.5-1.8,0.9-2.7-0.5-3.8
		c1.5-0.6,3.4,0.8,4.7-1l-0.1,0c3.3-0.2,0.6-3.7,2.5-4.5c1-0.3,1.7-1,2-2c2.4-1.9,3.6-4.8,5.5-7.1c4.6-5.4,8.6-11.4,13-17
		c1.7-2.2,0.7-3.3-1-4.4c-2.5-1.6-5.3-2.1-8.1-2.7c-10.3-2.1-12.6-1-17.1,8.4c-0.4,0.9-0.9,1.8-1.3,2.7c-2.2,5.1-5.6,9.6-7.4,14.9
		c-0.9,1.1-3.7,0.4-2.9,3.1c0,0.2,0,0.4-0.2,0.6c-1.3,0.2-1.6,1-1.3,2c0.5,1.4,1.8,0.9,2.8,1l0,0c-0.2,0.5-0.4,0.9-0.6,1.4
		c-0.5,0-1,0-1.5-0.1C94.8,51.6,94.4,54,93.7,56z M190,137.9L190,137.9c-0.3-1.9-1.8-1.5-2.9-1.5c-4.3,0-8.6,0-12.9,0c-3,0-6,0-9,0
		c-4.5,0.3-9.2-1-13.5,1.3c-9.9,1.8-19.7,4.1-29,8.2c-5.8,2.6-5.8,2.7-1.6,7.6c0.7,0.8,1.5,1.6,2.4,2.3c5.2,4.8,11.3,8.1,18.1,9.8
		c10.4,2.6,20.8,2.8,30.3-3.3c9-5.7,14-14.4,18.3-23.8c0.3-0.2,0.5-0.3,0.8-0.5C190.6,138.1,190.3,138,190,137.9z M224.4,136
		c0-0.2,0.1-0.3,0.3-0.4c0.7-0.4,1.4-1.1,1.1-1.8c-1.6-4.5,0.8-8.9,0-13.3c0.2-2.5,1.5-4.5,2.9-6.4c1.3-1.9,3-3.4,5.5-3.2
		c2.7,0.2,3.6,2.3,4.5,4.5c1.5,3.8,2.7,7.8,5,11.2c2,2.9,3.3,2.8,4.9-0.4c2-3.9,3.8-7.8,5.9-11.6c1.2-2.2,3-4.2,5.9-3.9
		c3,0.2,3.6,2.9,4.6,5.2c2.8,7,2.6,14.3,2.8,21.6c0.1,3.2,1.3,4.7,4.5,4.3c4.4-0.5,8.9-1.1,13.3-1.7c2-0.2,2.6-1,2.2-3.2
		c-1.2-7.6-3.1-15.1-3.4-22.9c-0.2-5.3,0.9-10.7-1.5-15.8c-0.2-2,0.6-4.4-2.2-5.3c-0.5-0.4-1-0.8-1.7-1.3c1-0.1,1.8-0.1,2.6-0.2
		c1.5,0.1,1.4-1,1.4-2c0.3-9.5,0.5-18.9,0.9-28.4c0.1-2.7-1.2-4.3-3.5-5.1c-2.9-1-5.9-2-9.1-2c-5.5,0.1-7.3,1.3-9.7,6.5
		c-2.8,6.1-4.9,12.5-8.8,18.1c-3.3,4.8-7,4.8-10.2,0c-2.4-3.7-3.6-7.9-5.4-11.8c-5.6-12.5-7.7-13.7-21.1-11.2
		c-0.8,0.2-1.7,0.4-2.5,0.7c-5.3,2-5.8,2.8-5.8,8.5c0,7.5,0,15-0.1,22.4c0,2.7,0,4.5,3.5,3.3c1.5-0.5,3.2-0.2,4.8-0.3
		c1.1,0.2,2.4-0.3,3.2,0.9L219,91l-0.2-0.1c-0.9-0.1-1.8-0.3-2.6,0.5c-2,0.5-4.1,1.1-6.1,1.5c-3.8,0.6-3.2,3.5-2.8,5.7
		c0.5,3.1,2.5-0.3,3.7,0.4c0,0.7,0,1.5,0,2.2c-3.3,0.1-4.5,1.6-4.6,5c-0.4,7.3-1.3,14.7-2.4,22c-0.3,2.4,0.1,3.5,2.5,3.8
		c1.9,2.1,4.5,1.4,6.8,1.4c0.5,0.1,1,0.1,1.5,0.2c0.5,0.9,1.4,1.2,2.4,1.4c1.1,0.1,1.6,0.6,0.5,1.6c-1.3-0.3-2.5-0.6-3.8-0.9
		c-0.6-0.8-1.4-0.7-2.2-0.6c-1.5-0.3-3-0.6-4.5-0.9c-0.9-1-2-0.6-3-0.5c-1.6,1.4-1.3,3.3-1.3,5.1c-0.2,0.8-0.5,1.6-0.7,2.4
		c0.2,3.6-1.3,6.9-1.7,10.3c-2.9,2-0.8,5-1.4,7.5c0,0.5-0.1,1-0.1,1.5c-2,2.2-1.7,4.6-0.6,7c-1.5,1.4-1.2,3.4-1.8,5.2
		c-0.7,2.2,0.2,2.6,2.2,2.2c8.3-1.6,16.8-2,25.2-1.6c1,0.1,2.5,0.5,2.9-1c0.3-1.2,0.3-2.6-0.2-3.7c-0.6-1.4-2.5-0.8-3.6-1.6
		c1.4-1.2,5.1,0.6,4.4-3.2c-0.4-2.1,1.3-4.7-1.3-6.3c-0.1-1.5-0.1-2.9-0.2-4.4c-0.3-3.7,2.3-8.8-4.2-9.9c-0.1,0-0.1-0.4-0.2-0.7
		c1.2-0.4,3.3,1.6,3.6-1.4c0.3-2.5-1.3-2.8-3.1-3.1c-1-0.2-1.8-0.6-2.8-0.9C220.7,135.6,222.8,137.2,224.4,136z M373,89.9L373,89.9
		c0,1.6-0.6,3.5,1.3,4.5c0.1,0.9,0.2,1.8,0.2,2.7c0.5,0.6-2.4,1-0.2,1.8c0.1,2.1-0.4,4.3,1.4,6c0.9,4.7,2,9.3,2.6,14
		c0.4,3.7,2.1,5.5,5.7,5.6c0.2,0.5,0.5,1,0.7,1.5c-1.8,0.1-3.6-0.5-5.8,0.3c1.7,1.1,0.3,3.7,2.8,4.1c0,0.5,0,1,0,1.4
		c-0.2,0.1-0.4,0.1-0.7,0.1c-1.4,2.4-1.5,4.6,0.6,6.7c0.3,4.1,2.1,7.9,1.7,12c-0.5,3.2,0.2,6,3.2,7.7l-0.1,0
		c-0.7-0.2-1.3-0.1-1.6,0.8c-0.4,3.2,0.1,4.3,3.9,3.2c6.5-1.8,13.2-3.4,20.1-3.6c0.9,0,2.3,0.4,2.4-1c0.1-1.1-0.4-2.3-1.4-2.9
		c-0.7-0.4-1.7-0.3-2.5-0.4c-2-0.8-4.8,1.4-6.2-1.6c1.5-0.3,2.9-0.7,4.4-0.7c3.1-0.2,3.7-1.4,2.6-4.3c-1-2.7-2.2-5.5-2.4-8.5
		c0.6-1.8-1.1-2.9-1.5-4.4c-0.5-1.5-1-3.1-1.5-4.6c0-0.7,0-1.4,0-2c-2.3-9.2-3.2-18.8-6-27.9c0-1,0-2,0-3c-0.3-1.5,0.8-3.2-0.9-4.4
		c-1-2.6-3.3-1.2-5.1-1.7c0-0.5,0-0.9,0-1.3c1.3-0.5,3.3,0.6,4-1.6c0.8-1.9,1.2-3.7-0.9-5.2c-0.1-0.5-0.1-0.9-0.1-1.4
		c0-1.5,0.4-3,0-4.4c-1-3.3-0.3-7.1-2.9-10c-0.2-0.2-0.2-0.4-0.1-0.6c-0.1-1.6,0.8-3.6-1.8-4c0.2-0.4,0.3-0.9,0.5-1.3
		c0.5-0.1,1-0.1,1-0.7c0-0.6-0.5-0.7-1-0.7c-0.7-5.1-1.8-6-7.1-5.7c-2.6,0.2-5.1,0.8-7.7,1.2c-4.1,0.7-6.1,3-6.3,7.2
		c0.1,1.3-0.8,2.9,1.4,3.2l0,0c-0.3,1.5-2.3,2.6-1.5,4.4c1.2,2.6,1.2,5.4,1.5,8.1c0.1,0.7,0.7,0.9,1.4,1c0.2,0.2,0.2,0.4,0.1,0.7
		c0,2.3,0,4.7,0,7C371.4,88.3,371.1,89.7,373,89.9z M353.4,130.4L353.4,130.4c0-0.2,0-0.3,0-0.5c5.5,0,11.1,0,17.3,0
		c-1.9-2.9-3.5-4.5-6.3-4.7c-9.2-0.5-18.1,1-27.8,2.4c2.7,1.4,4.9,2.5,7,3.5c0.4-0.1,0.9-0.2,1.3-0.3c1.8-0.2,3.6-0.4,5.3-0.6
		c0,0.5,0,1.1,0,1.6c-1.6,0.5-3.9-0.6-4.8,1.1c-0.9,1.7,1.7,2.4,2.2,4c0.1,0.3,0.5,0.5,0.7,0.8c6.2,8.8,4.3,23.3-2.4,28.6
		c-1.6,0.1-2.7,1.5-1.9,2.3c1.1,1.2,2.9,0.9,4-0.8c8.8-3,17.5-6.2,26.3-8.8c2.9-0.9,3.8-2.2,3.8-4.9c0-7.8-1.8-15.2-5.4-22.2
		c-0.1-2.2-1.8-1.6-3-1.7C364.3,130.4,358.9,130.4,353.4,130.4z M77.4,81c4.2,0.5,8.5,0.9,12.8,1.3c1,0.1,2-0.1,2.3-1.3
		c0.8-0.6,1.7-1.4,1.4-2.4c-0.4-1.2-1.7-0.5-2.6-0.7c-1.1-0.2-2.2-0.5-3.2-0.7c-6-0.7-12.2-2.7-17.9,1.5c-1.2,1-2,0.5-3.2-0.4
		c-1.1-0.8-2-2.3-3.7-2.3c-5.7,0.2-11.4,0.6-17.1,1.6c-2.4,0.4-1.7,2.4-1.7,3.8c0,2,1.5,1.2,2.5,1C56.6,81,66.3,81,76,81
		C76.5,81,76.9,81,77.4,81z M491.1,174.5c-4.8,0-9.7-0.3-14.5,0c-2,0.2-4.4-1-6.1,0.9c0.8,2.9,1.3,5.8,2.3,8.6
		c2.8,7.6,4.8,8.5,12.4,5.5c6.2-2.4,11.9-5.6,17.1-9.8c1.2-0.9,2.2-1.9,2.9-3.3c0.7-1.4,0.2-2.7-0.7-3.8c-0.7-1-1.7-0.8-2.9-0.4
		C498.2,173.1,494.6,173.7,491.1,174.5z M29.4,206.4c0.3,0.4,0.5,0.9,0.9,1.1c9.7,6.8,20.9,7.6,32.2,7.3c2.3-0.1,3.3-1.7,3.3-4.1
		c0-3.6-2.1-6.8-1.8-10.5c0.1-1.4-1.4-1.2-2.3-1.1c-8.5,0.2-16.9-0.6-25.4-1.2c-1.4-0.3-2.9-0.6-4.3-0.8c-5.3-0.8-6.7,0.9-4.8,6.1
		C27.6,204.3,28.2,205.6,29.4,206.4z M137.6,100.1c0,1.9,0,2.9,0,3.9c0.4,6.1,2.4,11.3,8.6,13.7c5.3,2,11.8,0.1,16.2-4.8
		c6.9-7.7,9.3-24.8,4.8-34c-2.8-5.7-8-7.8-14.1-5.6c-4.5,1.6-8,4.5-10.7,8.5C138.6,87.5,137.9,94.2,137.6,100.1z M411.3,140
		c2.3-4.8,4.3-9,6.3-13.3c5-10.5,4.9-21.2,0.7-31.9c-4.5-11.7-11.8-21.6-19.5-31.3c-0.2-0.3-0.4-0.6-0.8-0.8
		c-0.5-0.4-1.2-0.6-1.7-0.2c-0.4,0.3-0.2,0.8-0.1,1.3c2,11,3.9,22.1,5.9,33.1C404.9,111,406,125.5,411.3,140z M415.6,174.1
		c0.2-3.6-1.7-7.4-2.4-11.3c-0.3-1.4-1.4-1.5-2.6-1.5c-8.5,0.3-16.6,2.3-24.6,5c-0.9,0.3-0.9,1.1-0.9,1.8c0.5,5.3,0.7,10.7,2.1,15.9
		c1,3.7,3.6,5.4,7.3,4.8c4.1-0.6,8.2-1,12.3-2.7C413.1,183.5,415.7,180.9,415.6,174.1z M214.2,176c-3.3,0.2-6.9,0.4-10.5,0.8
		c-7.7,0.8-9.5,3.3-8.2,11.1c0.1,0.4,0.2,0.7,0.2,1.1c1,4.6,3.6,6.8,8.4,6.8c5.2-0.1,10.1-1.6,14.9-3.7c5.9-2.6,9-6.6,8.5-13.1
		c-0.1-1.6-0.7-2.2-2.2-2.2C221.7,176.6,218.1,176.3,214.2,176z M49.4,187.5c3.8,0,6.5-0.1,9.1,0c2.7,0.2,3.7-0.9,3.1-3.5
		c-1-4.3-0.9-8.6-1.8-12.9c-0.8-4-0.8-4.2-4.7-2.7c-5.4,2.1-10.9,3.5-16.6,4c-6.4,0.6-6.6,0.6-7.4,7.1c-0.1,1-0.1,2-0.4,3
		c-0.9,2.5,0.5,3.3,2.5,3.4C39,186.1,44.7,188,49.4,187.5z M326.3,152.1c-0.3,0-0.6,0-0.8,0c0,4.4,0.1,8.7,0,13.1
		c0,1.6,0.1,2.5,2.1,2.6c8.6,0.4,15.8-6.3,16.1-15.2c0.4-9.2-5.8-16.3-14.4-16.8c-2.3-0.1-3.1,0.5-3,2.9
		C326.4,143.1,326.3,147.6,326.3,152.1z M438,169.6c0.3-1.2,0.2-2.2-1.1-2.8c-4.7-2.3-9.7-3.6-14.9-4.2c-1.3-0.2-2,0.8-1.6,2.6
		c0.8,3.1,1.4,6.3,1.7,9.5c0.4,3.6,0.9,8-1.8,10.3c-4.6,4-0.8,5,1.6,6.8c1.8,1.3,3.6,2.6,5.6,3.7c3.4,1.9,4.9,1.1,6.3-2.7
		C436.7,185.3,437.1,177.4,438,169.6z M113.3,139.7c0.8,1.2,1.6,1.9,2,2.7c1.1,3,2.9,3,5.4,1.6c2-1.1,4.2-2,6.5-2.8
		c17.8-6.2,36.2-8.3,55-6.9c2.4,0.2,4.7,0.4,7.1,0.8c2.5,0.4,3.1-1.4,3.4-3.1c0.3-2.1-1.6-1.4-2.7-1.5c-4.2-0.5-8.4-0.9-12.7-1.2
		C155.2,127.8,133.9,130.9,113.3,139.7z M56.6,196c1.2,0,2.5,0,3.7,0c2.4,0,2.4-1.5,2.3-3.3c-0.1-1.9-0.5-3.1-2.8-2.9
		c-9.3,1.1-18.5,0-27.5-1.5c-2.9-0.5-3.1,1.2-3.5,3c-0.6,2.2,1,2.4,2.6,2.6C39.7,194.9,48.1,195.8,56.6,196z M365.7,91.3
		c-2.2,5.6-4.9,9.6-8.2,13.1c-1.2,1.2-1.2,2.5,0.2,3.5c3.9,2.8,7.8,5.5,12.2,8.5C369.2,107.7,367.8,100,365.7,91.3z M59.2,157.5
		c-7.6,3.1-15.2,5.7-23.4,6.7c-2.1,0.3-1.9,2.6-1.9,4c0.1,2.1,1.9,0.9,2.9,0.8c6.5-0.6,12.7-3,19-4.5
		C60.1,163.5,59.8,160.9,59.2,157.5z M102,144.7c-0.7-1.6-0.9-3.8-3.9-2.7c-4.5,1.6-8.8,3.4-13.1,5.4c-3,1.4-1.7,3.2-0.8,5
		c1.4,2.8,2.1,0.1,3.1-0.4c1.3-0.7,2.8-0.9,4.2-1.4c3.3-1,6.8-1.6,9.3-4.2C101.3,146,102.4,146,102,144.7z M123.1,76.3
		c-0.7,0-1.5-0.1-2.2,0c-1.6,0.3-2.1,1.6-2.3,3c-0.2,1.3,0.5,2.1,1.7,2.4c3.6,0.9,7.1,2,10.7,2.7c2.3,0.5,2.9-1.6,3.6-3.3
		c0.4-0.9,0.8-1.7-0.6-2.2C130.4,77.8,127,76.2,123.1,76.3z M396.1,71.8c-0.9,1.9-1,3.1,0.2,4.9C396.9,74.8,397.1,73.6,396.1,71.8z
		 M395.3,67.3c-0.1-0.4-0.1-1.1-0.8-0.9c-0.6,0.1-0.6,0.7-0.6,1.2c0.1,0.5,0.1,1.1,0.8,1C395.3,68.4,395.3,67.8,395.3,67.3z"/>
	<path class="st1" d="M371.4,7.4c8.8,0,15.4,7.8,15.6,18.7c0.1,8.5-5.1,13.7-16.8,14.3c-8.6,0.5-15.5-6.6-15-15.2
		C356,13.2,361.4,8.1,371.4,7.4z"/>
	<path class="st2" d="M44.4,95c0-0.4-0.1-0.7-0.1-1.1c-0.1-7.2,0.8-8.1,8.2-8.5c8.7,0,17.4,0,26.2,0.1c7.4,0.1,8,0.6,8,5.4h0
		c-2.6,1.1-3.6,3.1-3.2,5.9l0,0c-1.7,0.6-1.7,1.9-1.5,3.4l0,0.3c-3.8,3.2-2.8,12.5,1.7,15.5c0,0,0,0,0,0c-0.1,3.5,2.1,6.3,3.8,8.8
		c0.9,1.3,1,4,3.6,4.1c2.7,2.2,4.3,5.3,6,8.2c0.9,1.5-0.2,1.8-1,2.2c-4.5,2.1-9,4.2-13.5,6.2c-2.2,1-3.8,0.2-4.6-2.1
		c-1.1-2.9-2.5-5.7-5-7.8c-4-3.5-8.3-2.8-10.8,1.9c-2.2,4.1-2.3,8.7-2.7,13.1c-0.2,2.7-1.4,3.8-3.6,4.8c-5.5,2.6-11.5,2.5-17.3,3.9
		c-2.3,0.6-3.1-0.3-2.6-2.8c2.9-14.8,5.5-29.6,6.9-44.7c2,0.6,1.2-1,1.2-1.7C44.5,105,44.4,100,44.4,95z"/>
	<path class="st3" d="M284.4,114c0.3,7.8,2.2,15.3,3.4,22.9c0.3,2.2-0.2,3-2.2,3.2c-4.4,0.5-8.9,1.1-13.3,1.7
		c-3.2,0.4-4.4-1.1-4.5-4.3c-0.2-7.3,0-14.7-2.8-21.6c-0.9-2.3-1.5-4.9-4.6-5.2c-2.9-0.2-4.6,1.8-5.9,3.9c-2.1,3.8-3.9,7.7-5.9,11.6
		c-1.7,3.2-2.9,3.3-4.9,0.4c-2.4-3.4-3.5-7.4-5-11.2c-0.8-2.1-1.8-4.3-4.5-4.5c-2.5-0.2-4.2,1.3-5.5,3.2c-1.3,1.9-2.7,3.9-2.9,6.4
		c-2.2,4.9-1.4,10-1.2,15.1c-0.2,0.1-0.3,0.2-0.3,0.4c-3.2-0.8-6.4-1.6-9.7-2.4c-0.5-0.1-1-0.1-1.5-0.2c-2.2-1-4.4-1.5-6.8-1.4
		c-2.4-0.3-2.8-1.5-2.5-3.8c1-7.3,2-14.6,2.4-22c0.2-3.5,1.3-5,4.6-5c12.1-3.1,24.3-5.9,36.9-6c5.8,0,11.5,0.5,17.2,1.9
		c3.6,0.8,7.8,0.4,11.3,1.9c6.1,2.6,6.7,1.2,7,7.8C283.4,109.1,283.3,111.7,284.4,114z"/>
	<path class="st4" d="M216.1,89.9c-1.6,0.1-3.3-0.2-4.8,0.3c-3.5,1.2-3.6-0.6-3.5-3.3c0.1-7.5,0.1-15,0.1-22.4
		c0-5.7,0.5-6.5,5.8-8.5c0.8-0.3,1.7-0.5,2.5-0.7c13.4-2.5,15.5-1.3,21.1,11.2c1.8,4,2.9,8.2,5.4,11.8c3.2,4.8,6.8,4.9,10.2,0
		c3.9-5.6,6-12,8.8-18.1c2.4-5.2,4.1-6.4,9.7-6.5c3.2,0,6.2,0.9,9.1,2c2.2,0.8,3.6,2.4,3.5,5.1c-0.4,9.5-0.6,18.9-0.9,28.4
		c0,1,0.1,2.1-1.4,2c-0.5-0.3-1-0.8-1.6-1C258.7,82.8,237.4,83.9,216.1,89.9z"/>
	<path class="st4" d="M492.9,69c-5.5,8-11.9,15.4-16.7,23.9c-1.4,2.4-2.9,3.9-5.9,3.1c-3.7-1.9-7.9-2-11.8-3
		c-4.5-1.2-9.1-0.7-13.6-1.2c-6.7-0.8-13.6-0.8-20.4,0.3c-5.2-10.8-11.9-20.5-20.3-29c-0.8-1.5-0.7-2.5,1.3-2.8
		c2.2-0.4,4.3-1.1,6.5-1.4c5.2-0.7,10.1-3.3,15.5-3.2l-0.1-0.1c0.6,2.3,1.1,4.6,2.4,6.6c2.3,7.2,5.1,14.2,9.4,20.5
		c0.6,0.9,1.3,1.8,2.1,2.6c5,5.2,8.4,5.1,12.6-0.7c1.9-2.7,3.8-5.5,4.3-8.9c1.3-0.9,1.6-2.2,1.6-3.7l0,0c1.3-0.7,1.4-1.8,1.3-3.1
		c0.1-0.2,0.1-0.5,0.1-0.8c1.1-0.7,1.5-1.7,1.3-3c0.8-2.2,1.8-4.3,2.4-6.6c0.6-2.2,1.8-2.6,3.8-2.1c4.5,1,9.1,1.9,13.4,3.5
		c2.8,1.4,5.6,3.1,8.6,4.2C493.5,65.2,494.1,66.6,492.9,69z"/>
	<path class="st4" d="M364,84.7c-0.1,0.4-0.1,0.7-0.2,1.1c-0.7,0.8-1.3,1.6-1.2,2.7c-0.2,0.2-0.2,0.4-0.2,0.7
		c-0.9,0.8-1.5,1.8-1.6,3.1l0,0c-0.8,0.6-1.4,1.3-1.4,2.3v0c-2.1,3.2-6.1,2.7-9,4.5l0,0c-2.1,0-4.1,0.6-6,1.5
		c-3.3,0.6-6.5,1.2-9.8,1.7c-7.5,0.9-15,0.6-22.4,0c-8.1-1.6-8.2-1.6-8.3-9.8c-0.1-9.6-1.1-19.1-1.7-28.7c-0.1-1.5-0.2-2.9-0.2-4.4
		c0.2-0.1,0.4-0.3,0.5-0.5c5.9,2.1,11.9,4.1,18,5.6c0,0.3,0,0.6,0,0.9c-0.7,0.1-1.1,0.6-1.1,1.3c0.7,6.8-0.1,13.6,1.1,20.3
		c-0.1,6.5-0.1,6.5,6.2,6.1c0.8,0,1.5-0.1,2.2-0.2c8.2-1.3,14.3-7.8,14-15c-0.1-3.7-2-6.5-4.5-9.6c6.9,0,13.2,0,19.5,0
		c2,0,4-0.7,5.9,0.4l0,0.3C365,74.2,365,79.4,364,84.7z"/>
	<path class="st5" d="M190.2,138.7c-4.3,9.3-9.3,18.1-18.3,23.8c-9.5,6-19.8,5.8-30.3,3.3c-6.8-1.7-12.9-5-18.1-9.8
		c-0.8-0.8-1.7-1.5-2.4-2.3c-4.2-4.9-4.2-5,1.6-7.6c9.2-4.2,19.1-6.4,29-8.2c4.6,0.3,9-0.6,13.5-1.3c3,0,6,0,9,0
		c5.2,0.8,10.5,1.2,15.8,1.4l0,0C190.1,138.2,190.1,138.4,190.2,138.7z"/>
	<path class="st2" d="M449.4,102.4c5.7,0.5,11.2,1.9,16.8,3.2c2.7,0.6,3.1,1.7,2.7,4c-0.9,5.3-0.5,10.6,1.4,15.7
		c-4.4,1.8-8.6,3.9-13.2,5.2c-3.5-0.1-6.6,0.8-9.3,3l0,0c-6.6-0.2-13.2,0.4-19.9,0.1c-3.1-0.2-4.7-0.8-4.2-4.1c0-0.2,0-0.4,0.2-0.5
		c4.5-6,5.5-12.7,4.3-19.8c0-0.3,0-0.6,0-1c0.5-0.4,0.8-0.9,0.8-1.6c-0.2-3,1.5-5,4.2-4.4c2.4,0.6,4.6-0.1,6.8-0.3
		C443.2,101.6,446.3,101.9,449.4,102.4z"/>
	<path class="st3" d="M112,135.6c0-0.2,0-0.4-0.1-0.7c0.1-1.9-0.7-3.6-1.4-5.3c0-0.9-0.1-1.8-0.1-2.7c0-7.9,0-15.7,0-23.6
		c0.4-6.4,2.8-12.3,5-18.2c0.6-1.7,1.9-2,3.3-1.7c3.6,0.7,7.2,1.4,10.8,2.2c1.9,0.4,2.8,1.2,2.3,3.7c-1.3,7.4-1.6,14.8,0.7,22.2
		c1.7,5.4,4.4,9.9,9.4,12.9c-0.4,2.3,3.1,1,2.9,3.1c-9.9,1.8-19.7,4.2-28.9,8.5c-0.8,0.4-1.7,0.4-2.5,0.6
		C113,136.2,112.5,135.9,112,135.6z"/>
	<path class="st1" d="M114.8,185.1c0.9-0.4,1.8-0.8,2.7-1.3c6.5-2.4,11.8-6.8,17.7-10.2c3.2,2.2,6.4,4.3,9.5,6.7
		c4.5,3.4,4.4,7.7,0.4,11.7c-6.5,6.3-13.5,11.6-22.4,13.9c-5.3,1.4-9.8-0.2-13.1-4.7c-1.7-2.4-3.1-5.1-4.8-7.6
		c-1.3-1.9-1.2-3.3,0.5-4.7c0.8,0.1,1.5-0.2,2.1-0.7c1.3-0.3,2.6-0.6,3.9-0.9c1.1,0.3,1.2-0.7,1.5-1.3c0.5-0.2,1.1-0.4,1.6-0.7
		l0.2,0.1L114.8,185.1z"/>
	<path class="st5" d="M372.8,132.1c3.6,7,5.4,14.3,5.4,22.2c0,2.7-0.8,4-3.8,4.9c-8.9,2.6-17.6,5.8-26.3,8.8
		c-0.9-0.3-2.4,0.3-2.1-1.5c6.7-5.3,8.6-19.8,2.4-28.6c-0.2-0.3-0.6-0.5-0.7-0.8c-0.4-1.5-3-2.3-2.2-4c0.9-1.7,3.2-0.7,4.8-1.1
		C357.9,132,365.3,132,372.8,132.1z"/>
	<path class="st3" d="M336.9,124.4c-2.5,0.6-5,1.2-7.4,1.7c-3.5,0.2-7.7-1.9-10,2.7l-0.2,0l-0.2,0.1c-1.9,0-3.6,0.6-5.2,1.5l0,0
		c-1.4,0.1-2.8,0.5-3.9,1.4c-0.2,0-0.4,0-0.6,0.2c-0.6,0-1.2,0.1-1.8,0.1c-2.1-0.3-1.9-1.9-1.9-3.4c0-6.5,0.1-12.9,0.1-19.3
		c2,0.2,4.1-0.5,5.9,0.7c0.4,0.3,0.8,0.7,1.2,0.7c7,0.1,13.9,0,20.9,0.1c1,0,1.7-0.3,1.9-1.4c2.5-0.7,4.8-2.1,7.5-1.7
		c1.4-0.1,2.8-1.7,4.2,0c-0.3,3.1,2.4,4,4.3,5.1c2.7,1.7,5.7,2.9,8.1,5.1c-0.4,1.2,1.3,1.8,0.8,3.3c-2.7,0-5.6,0-8.4,0
		c-1.2,0-2.6-0.4-2.9,1.4c-0.5,0-0.9,0-1.4,0.1c-2.6,0-5.2,0-7.7,0C338.6,122.9,337.2,122.6,336.9,124.4z"/>
	<path class="st1" d="M325,184.4c0.7-0.1,1.5-0.2,2.2-0.3c0.8,0.1,1.6,0.1,2.3-0.5c0.5-0.1,0.9-0.2,1.4-0.2c0.8,0.1,1.6,0,2.3-0.5
		c0.5-0.1,1-0.2,1.5-0.3c1.2-0.2,2.7,1,3.6-0.7c0.8-0.1,1.8,0.7,2.3-0.5c0.7-0.3,1.5-0.5,2.2-0.8c0.3-0.1,0.5-0.1,0.8-0.2
		c0.5-0.2,1.1-0.3,1.6-0.5c1,0,2-0.2,2.8-0.8c0.9,0.1,1.7-0.1,2.3-0.7c0.2-0.1,0.5-0.1,0.8-0.2c0.4-0.2,0.8-0.3,1.2-0.5
		c0.4-0.1,0.7-0.2,1.1-0.2c0.5-0.2,1-0.4,1.6-0.6c0.8,0,1.6-0.1,2.1-0.7c0.9,0,1.7-0.1,2.4-0.8c0.8,0,1.6-0.2,2.2-0.8
		c0.9,0.1,1.6-0.2,2.2-0.8c1.7-0.3,3.4-0.8,4.8-1.9c0.6,0.4,0.9,0.2,1.2-0.3c1-0.3,2-0.7,3-1c0.6,0.1,1.3-0.6,1.9,0.1
		c-6.3,13.4-16.4,22.2-31.1,25.3c-12.3,2.6-29.5-1.4-40.6-9.3c4.3-0.4,8.1-0.7,12-1.1c1.6,0.1,3.1,0.1,4.6-0.6
		c0.5-0.1,0.9-0.1,1.4-0.1C322.5,185.2,323.8,185.1,325,184.4z"/>
	<path class="st5" d="M108.8,149.5c4,5.2,9.6,8.9,14.1,13.7c0.9,1,2.1,1.7,2.6,3c-3,2-6,4-9,6c-3.8,1-7.2,2.8-10.5,4.6
		c-0.9,0.5-1.9,1-2.8,1.5c-6.2,1-6.2,1-9.5-5.1c-2.5-4.7-4.8-9.5-7.4-14.1c-1-1.7-0.5-2.5,0.9-3.2c4.7-2.3,9.2-5.1,14.4-6.1
		c1.5,0.1,2.8-0.3,3.8-1.4c0.2,0,0.5,0,0.7-0.1c0.5,0,1,0.1,1.5,0.1l0,0C107.9,148.8,108.3,149.2,108.8,149.5z"/>
	<path class="st5" d="M476.4,137.9c4.2,8,10.8,14,16.3,20.9c3.3,4.2,3.4,4.1-1.4,6.1c-6.7,0.8-13.4,1.1-20.2,0.1
		c-4.6,0.3-5.5-3.2-6.7-6.4c-1.6-4.1-2.7-8.5-5.9-11.8c-0.2-1.4-0.9-2.5-2.2-3.1h0c-0.2-0.9-0.9-1.4-1.6-2c-1.1-1-1.3-1.9,0.4-2.3
		c6.3-1.4,12.1-4.3,18.2-6.2c0.1,0.2,0.3,0.2,0.5,0.3c0.2,0.3,0.5,0.6,0.8,0.9c0,0.2,0,0.3,0.2,0.5
		C474.8,136.2,475.2,137.3,476.4,137.9z"/>
	<path class="st1" d="M415.6,174.1c0.1,6.8-2.5,9.4-8.8,12.1c-4.1,1.7-8.1,2-12.3,2.7c-3.8,0.6-6.3-1.2-7.3-4.8
		c-1.4-5.2-1.6-10.6-2.1-15.9c-0.1-0.8-0.1-1.5,0.9-1.8c8-2.7,16.1-4.7,24.6-5c1.2,0,2.4,0.1,2.6,1.5
		C413.9,166.7,415.8,170.5,415.6,174.1z"/>
	<path class="st5" d="M268,172.4c-4-2.4-0.9-6-1.4-9c2.2-0.6,1.3-2.3,1.4-3.7c0.2-3.4-0.5-6.8,1.5-9.9l0,0c3.5,0,7.1,0.1,10.6,0.1
		c1.2,0,2.6,0.4,2.9-1.4c2,0,4-0.1,6-0.1c0.2,1.2-0.5,2.7,1.4,3c2.2,7.6,2.9,15.5,4.7,23.2c0.3,2.9-1.3,3.4-3.6,2.9
		c-2.3-0.5-4.6-0.7-7-0.5C278.7,176.2,273.4,173.9,268,172.4z"/>
	<path class="st1" d="M101.5,44.2c1.8-5.3,5.2-9.8,7.4-14.9c0.4-0.9,0.9-1.8,1.3-2.7c4.5-9.3,6.8-10.5,17.1-8.4
		c2.8,0.6,5.6,1.2,8.1,2.7c1.7,1.1,2.7,2.2,1,4.4c-4.4,5.6-8.4,11.6-13,17c-2,2.3-3.2,5.2-5.5,7.1c-2.6,0.6-4.5-2-7-1.4l-0.3-0.1
		c-0.3-2-1.8-1.5-3.1-1.5l0,0c-0.2-1.9-1.5-1.5-2.7-1.4C103.7,44.8,102.6,44.5,101.5,44.2z"/>
	<path class="st3" d="M168.9,115.5c0-0.2,0.1-0.3,0.2-0.3c2.9-0.4,2.8-2.5,2.7-4.6c0.5-2.3,1.1-4.7,1.6-7.1c0.4-0.6,0.9-1.3,1.3-1.9
		c0.5,0.1,1.1,0.3,1.6,0.4c1.3,1.1,2.9,1.5,4.6,1.4l0,0c5.8,2.2,11.9,1.8,17.9,1.3c0.2,0.1,0.5,0.2,0.8,0.3c-0.8,5-1.5,9.9-2.3,14.9
		c-0.3,0.9-0.8,1.8-1,2.8c-1.9,6-2.8,6.5-9.5,5c-1-2.2-3-1.8-4.8-1.8c-6.9-0.2-13.7-1.9-20.7-1.8
		C164.6,121.7,168.6,120.2,168.9,115.5z"/>
	<path class="st4" d="M61,73.5c-0.8,0-1.5,0.1-2.2,0.1c-3.3-0.1-6.6,0-9.8,1.3c-0.5,0.1-1,0.1-1.5,0.2c-2.7,0.5-3.8-0.7-3.9-3.3
		c0-1.2-0.4-2.4-0.6-3.6c0.3-5.4-1.1-10.7-2.2-15.9c-1.4-6.9-1.6-6.8,5.1-7.5c5.5,0,11,0,16.5,0c2.5,0.7,1.4,2.7,1.2,4
		C62.9,56.6,62,64.2,62.6,72C62,72.5,61.5,73,61,73.5z"/>
	<path class="st3" d="M384.2,124.6c-3.7-0.1-5.3-1.9-5.7-5.6c-0.6-4.7-1.7-9.3-2.6-14c-0.2-5.3-0.2-5.2,4.8-6.1
		c0.7-0.1,1.3-0.6,2-0.9c1.9,1.3,3.8,2,5.3-0.5c0.5,0,0.9,0,1.4,0c2.3,1.6,5.5,0.8,7.6,3c2.8,9.1,3.7,18.7,6,27.9
		C396.6,127.6,390.6,124.9,384.2,124.6z"/>
	<path class="st5" d="M318.9,175.4c-0.5,0.1-1.1,0.2-1.6,0.2c-4.5-0.4-8.9,1.3-13.4,1.2h0c-0.2-0.6-0.4-1.1-0.4-1.7
		c0.2-7.9,0.2-15.8,0.3-23.7c0.1-2.6,0.1-5.2,0.2-7.9c0.6-0.2,1.2-0.4,1.4-1.1h0c1.3,0,2.4-0.5,3.5-1c3.7-1.5,7.4-2.8,11.3-3.5
		c0,4,0.1,7.9,0.1,11.9c-0.8,1.1-0.4,2.4-0.5,3.6C319.6,160.8,319.3,168.1,318.9,175.4z"/>
	<path class="st5" d="M200.4,151.4c0.4-3.5,1.8-6.8,1.7-10.3c4.8-0.6,9.2,1.6,13.9,2.1c6,0.7,10.1,3,10,9.8c0.1,1.5,0.1,2.9,0.2,4.4
		c0,1.1-0.2,2.3,0,3.3c0.6,3.4-0.7,4.5-4.2,4.3c-6-0.3-12-0.1-17.9,0c-5.1,0.1-5.1,0.2-5.1-4.6c0-0.5,0.1-1,0.1-1.5
		C200.1,156.5,200.6,154,200.4,151.4z"/>
	<path class="st1" d="M214.2,176c4,0.3,7.5,0.6,11.2,0.8c1.5,0.1,2.1,0.6,2.2,2.2c0.4,6.5-2.6,10.4-8.5,13.1
		c-4.8,2.1-9.7,3.6-14.9,3.7c-4.7,0.1-7.3-2.1-8.4-6.8c-0.1-0.4-0.2-0.7-0.2-1.1c-1.3-7.7,0.6-10.3,8.2-11.1
		C207.3,176.5,210.9,176.3,214.2,176z"/>
	<path class="st1" d="M36.3,197.8c8.5,0.6,16.9,1.4,25.4,1.2c0.9,0,2.4-0.3,2.3,1.1c-0.2,3.7,1.9,6.8,1.8,10.5c0,2.4-1,4.1-3.3,4.1
		c-11.3,0.3-22.4-0.5-32.2-7.3c-0.4-0.3-0.6-0.8-0.9-1.1c0.3-1.3-0.5-2.3-1-3.4c-1.5-3.4-0.4-5,3.2-5.1
		C33.2,197.9,34.7,197.9,36.3,197.8z"/>
	<path class="st4" d="M371.4,80.1c0.1-0.2,0.1-0.5-0.1-0.7c0.2-2.6-0.3-5.2-1-7.7c-0.8-2.9,0.4-3.7,2.9-4.1
		c4.7-0.8,9.3-1.6,13.9-2.8c2.1-0.5,3,0.3,3.7,1.9c-0.1,0.2-0.1,0.4,0.1,0.6c0.4,4.9,1.3,9.7,2.9,14.4c0.1,0.5,0.1,0.9,0.1,1.4
		c0.3,1.7,0.6,3.4,0.9,5.2c-0.7,2.2-2.6,1.1-4,1.6c-4.7,0-9.3,0.7-13.8,1.8c-2.4,0.6-3.4,0.1-4.2-1.9l0,0
		C373.1,86.5,372.5,83.3,371.4,80.1z"/>
	<path class="st5" d="M49.4,187.5c-4.7,0.5-10.4-1.3-16.2-1.7c-2-0.1-3.4-0.9-2.5-3.4c0.3-0.9,0.3-2,0.4-3c0.8-6.4,1-6.5,7.4-7.1
		c5.7-0.5,11.2-1.9,16.6-4c3.9-1.5,3.9-1.3,4.7,2.7c0.9,4.3,0.8,8.7,1.8,12.9c0.6,2.6-0.3,3.7-3.1,3.5
		C55.9,187.3,53.3,187.5,49.4,187.5z"/>
	<path class="st6" d="M320.4,65.2c0-0.3,0-0.6,0-0.9c0.2-2,1.9-1.2,3-1.5c1.1,0.1,2.2,0.1,3.3,0.4c10.4,2.7,21,3.1,31.7,2.9
		c2.4,0,3.6-0.6,2.4-3.1c2.1,1.3,2.9,3.3,2.8,5.7c-1.9-1.2-3.9-0.4-5.9-0.4c-6.3,0-12.6,0-19.5,0c2.5,3,4.4,5.9,4.5,9.6
		c0.2,7.2-5.8,13.7-14,15c-0.7,0.1-1.5,0.2-2.2,0.2c-6.3,0.4-6.3,0.4-6.2-6.1C320.4,79.7,320.4,72.5,320.4,65.2z M325.6,78
		C325.6,78,325.6,78,325.6,78c0.1,2.6,0.2,5.2,0.3,7.8c0,1.3,0.3,2,1.9,1.9c4.2-0.3,7.7-4.3,7.7-9.1c0.1-5.1-3.3-9.1-7.7-9.4
		c-2-0.1-3,0.5-2.6,2.8C325.6,74,325.5,76,325.6,78z"/>
	<path class="st5" d="M383.4,150.7c0.4-4.2-1.4-8-1.7-12c0.5-2.3-0.9-4.4-0.6-6.7c0.2,0,0.5,0,0.7-0.1c6.5,1.4,13.2,1.9,19.5,4.1
		c2,0.7,3.6,1.6,4.5,3.5c0.2,3,1.3,5.8,2.4,8.5c1.1,2.9,0.5,4.1-2.6,4.3c-1.5,0.1-2.9,0.5-4.4,0.7c-3.7-0.5-7,1.1-10.5,1.7
		C385.4,155.5,385.4,155.6,383.4,150.7z"/>
	<path class="st1" d="M438,169.6c-0.9,7.8-1.3,15.7-4.2,23.2c-1.5,3.8-2.9,4.6-6.3,2.7c-1.9-1.1-3.8-2.4-5.6-3.7
		c-2.3-1.7-6.2-2.8-1.6-6.8c2.7-2.4,2.2-6.7,1.8-10.3c-0.3-3.2-0.9-6.4-1.7-9.5c-0.5-1.8,0.3-2.7,1.6-2.6c5.2,0.6,10.2,2,14.9,4.2
		C438.2,167.5,438.2,168.4,438,169.6z"/>
	<path class="st7" d="M113.3,139.7c20.6-8.8,41.9-11.9,63.9-10.4c4.2,0.3,8.5,0.7,12.7,1.2c1,0.1,3-0.6,2.7,1.5
		c-0.3,1.7-0.9,3.5-3.4,3.1c-2.3-0.4-4.7-0.6-7.1-0.8c-18.8-1.4-37.1,0.7-55,6.9c-2.2,0.8-4.4,1.6-6.5,2.8c-2.5,1.4-4.2,1.4-5.4-1.6
		C115,141.6,114.2,140.9,113.3,139.7z"/>
	<path class="st1" d="M293.4,187.2c0.8,0,1.6,0.1,2.4,0.1c0.2,0.1,0.4,0.2,0.6,0.3c0.1,0.7,0.2,1.3,0.3,2c0.1,1.4,0.2,2.8,0.3,4.2
		c-2,4.6-5.9,5.9-10.4,6.3c-1.6-0.9-3.3-1.3-4.9-0.3c-2.3,1.6-4.6,0.9-7,0.3c-3.1-0.8-6.2-1.3-9.3-1.9l-0.1-0.1
		c-1-3.3,0.4-6.8-1-10.1c0-2.2-0.1-4.4-0.1-6.6c0.5-0.1,1-0.2,1.5-0.3c1.1,0.3,2.3,0.7,3.4,1c0.4,0.2,0.7,0.3,1.1,0.5
		c0.2,0.2,0.4,0.3,0.7,0.2C278,186.2,285.5,187.9,293.4,187.2z"/>
	<path class="st1" d="M38.3,31.8c6.5-6.3,13.7-11.7,21.6-16.2c0.9-0.5,1.8-0.9,2.7-1.2c3.4-1.1,4.7-0.2,4.4,3.4
		c-0.5,5.6-1.2,11.1-1.8,16.6c-5.7,0-11.3,0-17,0c0,0.2,0,0.4,0,0.6c2.4,0.2,4.9,0.4,7.3,0.6c-3.2,0.1-6.4,0.3-9.6,0.4
		c-0.8-1-1.7-0.5-2.6-0.3C39,36.5,38.7,36.3,38.3,31.8z"/>
	<path class="st1" d="M491.1,174.5c3.6-0.7,7.2-1.3,10.7-2.3c1.2-0.3,2.1-0.6,2.9,0.4c0.8,1.1,1.3,2.4,0.7,3.8
		c-0.6,1.4-1.7,2.4-2.9,3.3c-5.2,4.1-10.9,7.3-17.1,9.8c-7.7,3-9.7,2.1-12.4-5.5c-1-2.8-1.6-5.7-2.3-8.6c7.7,0,15.4,0,23.1,0
		c0-0.2,0-0.5,0-0.7C492.7,174.6,491.9,174.6,491.1,174.5z"/>
	<path class="st8" d="M218.8,90.8l0.2,0.1l0.2-0.1c7.1-0.9,14.2-2.1,21.3-2.7c11.8-0.9,23.3-0.3,34.6,3.3c1.8,0.6,3.4,1.7,5.5,1.5
		c2.8,0.9,2.1,3.3,2.2,5.3c-8.9-2.7-18-4.5-27.2-5.5c-4.3-0.8-8.7-0.7-13,0c-10.7,1.5-21.4,2.8-31.7,6.3c-1.2-0.8-3.1,2.6-3.7-0.4
		c-0.4-2.2-1-5.1,2.8-5.7c2.1-0.3,4.1-1,6.1-1.5C217.1,91.4,218,91.4,218.8,90.8z"/>
	<path class="st1" d="M309.9,46.6c10.9-2.7,21.5-2.3,32,2.4c4.1,1.8,8.1,3.6,11.5,6.5c-0.4,2-2.1,1.4-3.3,1.4c-4.7,0.1-9.3,0-14,0.1
		c-7.4-0.2-14.4-2.5-21.7-3.9c-1.6-3.4-4.7-1.8-7.2-2.1l-0.2,0.1L307,51C306,48.3,309.6,48.5,309.9,46.6z"/>
	<path class="st9" d="M327.8,181.3l-0.3,0l-0.3,0.1c-2.8,0-5.6,0.3-8.3,1.4l0,0c-5-0.4-9.8,1.7-14.8,0.4l0.1-0.2l-0.1-0.2
		c0-1-0.1-2-0.1-3c0.1-0.1,0.2-0.3,0.1-0.5c2.5-0.1,4.9-0.3,7.3-1c3.4,0.1,6.7-0.3,9.9-1.5c11.8-1.7,23.1-5,34.5-8.3
		c2.3-0.7,4.5-1.6,6.7-2.4c1.4,0,2.6-0.5,3.7-1.3c0.2-0.1,0.5-0.1,0.8-0.2c1.2,0,2.2-0.5,3.1-1.3c2.4-0.7,4.4-3.2,7.6-1.9
		c-1.1,2-2.2,3.9-3.2,5.7c-1.8,0.7-3.8,0.8-5.3,2.1v0c-1.4,0.1-2.8,0.4-3.9,1.4c-0.2-0.1-0.4,0-0.6,0.1c-1.4-0.1-2.7,0.4-3.8,1.4
		l0,0c-1.7,0-3.2,0.4-4.5,1.5h0c-1.7,0-3.3,0.4-4.6,1.4c-0.4,0.1-0.9,0.2-1.3,0.2c-1.6,0.1-3.1,0.4-4.5,1.3l0,0
		c-1.7,0-3.3,0.3-4.7,1.4c-0.4,0.1-0.9,0.1-1.3,0.2C335.8,179.1,331.7,180,327.8,181.3z"/>
	<path class="st4" d="M97.9,52.4c0.5,0,1,0,1.5,0.1c3.1,1.5,6.2,3.1,9.3,4.7c1.3,1.1,2,2,0.5,3.8c-3.3,3.9-6.3,8-9.4,12
		c-1.1,1.5-2.3,2.3-4.4,2c-5-0.7-10-1.1-15.8-1.8c3.1-3.7,5.9-6.9,8.6-10.2c3.9-0.7,4.5-4,5.5-7c0,0,0,0,0,0
		C95.7,55.5,96.2,53.3,97.9,52.4z"/>
	<path class="st9" d="M165.8,67.6c-10.7-3.7-19.5-0.4-27,7.4c-1,1-1.9,1.3-3.3,0.9c-3.3-1-6.7-1.8-10.1-2.5
		c-2.6-0.6-2.7-1.8-1.2-3.5c1.9-2.3,3.8-4.5,5.8-6.8c2.8-1.1,4.1-4.5,7.5-4.7l0.1,0c2.7,1.9,5.7,3.1,8.9,3.8c8.1,3,16.5,3,24.9,2
		c0.9,0.1,1.8,0.4,2.5-0.5c0.4,0,0.8-0.1,1.2-0.2c1.4,0.2,2.8,0.1,4-0.6c0.4-0.1,0.8-0.2,1.2-0.2c0.6,0,1.3,0,1.9,0
		c0.1,0.1,0.2,0.2,0.3,0.3c-0.2,1-0.8,1.5-1.9,1.4c-4.4-0.3-8.4,2.2-12.8,1.5c-1-0.1-1.7,0.3-1.8,1.4L165.8,67.6z"/>
	<path class="st5" d="M416.5,151.2c-0.2-2.8-2.8-5.4-0.2-8.4c1.1-1.3,2.1-2,3.8-1.6c7.2,1.7,14.6,1.5,21.9,0.6
		c0.9-0.1,2.1-0.5,2.7,0.6c0.6,1-0.2,1.8-0.6,2.8c-0.9,2-2.5,3.8-2.4,6.1c-1.6,1.2-1.4,3-1.5,4.6c-0.1,0.1-0.1,0.2-0.1,0.4
		c-1.5,0.8-2.8-0.5-4.3-0.3c-1.5-0.5-2.9-1.2-4.6-0.7h0.1c-0.8-2.3-2.7-2.1-4.6-2.2c-0.5-0.1-0.9-0.1-1.4-0.1
		C422.7,151.3,419.5,151.8,416.5,151.2z"/>
	<path class="st10" d="M360.9,63c1.1,2.6-0.1,3.1-2.4,3.1c-10.7,0.2-21.3-0.2-31.7-2.9c-1.1-0.3-2.2-0.2-3.3-0.4
		c-6.4-2.3-12.9-4.2-19.5-5.8l0-0.1c-1.2-1-2.9-1.9-1.8-3.9c1.1-2.1,2.7-0.6,3.9-0.2c16.8,6,34.1,8.1,51.8,7.1
		c0.5,0.3,0.9,0.5,1.4,0.8c0.2,0.3,0.5,0.6,0.7,0.9c0,0,0,0,0,0C360,62.2,360.2,62.8,360.9,63L360.9,63z"/>
	<path class="st1" d="M466.7,96.6c1.9,0.5,3.8,1,5.7,1.6c-2,6.6-2.5,6.8-8.6,5c-4.7-1.4-9.6-2.1-14.4-2.7l0.1-0.3
		c0.6-0.3,1.2-0.6,2.3-1.2c-3.4,0-6.3,0.2-9.1,0c-5.2-0.3-10.6,0.9-15.8-0.7c0.3-1.6-1.4-2.8-0.8-4.5c0.5,0,0.9,0,1.4,0.1
		c0.7,0.7,1.6,0.6,2.4,0.6c7.3,0,14.6,0,21.9-0.1C457,94.3,461.7,96.1,466.7,96.6z"/>
	<path class="st9" d="M113.4,182.8c-0.2,0-0.5,0-0.7,0.2c-0.3,0.2-0.6,0.3-0.9,0.5l0.1-0.1c-0.9,0-1.6,0.3-2.2,0.9
		c-0.2,0.1-0.5,0.1-0.7,0.2c-1.2,0-2.2,0.4-3.1,1.3c0,0,0,0,0,0c-5.4,0.9-6.5,0.1-6.4-4.3c0.9-0.4,1.8-0.7,2.7-1.1
		c3-0.6,5.8-1.7,8.3-3.5c2.4-0.1,3.9-2.2,5.9-3.1c3.3-0.3,5.8-2.7,8.6-4.1c1.7-0.8,3.1-1.2,4.8-0.3l0,0c0.2,0.8,0.8,1.2,1.6,1.3
		l0.1,0.1c1.2,1.8-0.2,2.4-1.4,3C124.6,176.9,119,179.9,113.4,182.8z"/>
	<path class="st10" d="M176.6,55.5c2.4-0.6,4.3,0.5,6.2,1.7c1.7,1.1,1.1,1.9-0.4,2.6c-3.1-0.1-6.1,0.6-9.1,1.5
		c-0.5,0-0.9,0.1-1.4,0.1c-5.5,0-11,0-16.5-0.1c-4.4-1.2-8.9-1.8-13.1-3.7c-0.7-0.3-1.9-0.4-1.9-1.5c0-1,1.1-1.2,1.8-1.7
		c2.2-1.7,4.7-0.8,7.1-0.6l0,0.1C158.3,57.6,167.3,58.1,176.6,55.5z"/>
	<path class="st9" d="M223,166.9c1.1,0.8,3,0.3,3.6,1.6c0.5,1.1,0.4,2.5,0.2,3.7c-0.3,1.5-1.8,1-2.9,1c-8.5-0.4-16.9,0-25.2,1.6
		c-2,0.4-3,0-2.2-2.2c0.6-1.7,0.3-3.8,1.8-5.2c0.6,0.2,1.1,0.3,1.6-0.2c0.7-0.1,1.4-0.2,2.2-0.3C208.9,166.4,216,166.3,223,166.9z
		 M223.5,172.2c0-0.1,0-0.2,0-0.4c-4.4,0-8.9,0-13.3,0c0,0.1,0,0.2,0,0.4C214.6,172.2,219.1,172.2,223.5,172.2z"/>
	<path class="st11" d="M211,98.9c10.3-3.5,21-4.8,31.7-6.3c4.3,0,8.7,0,13,0c9.2,1,18.3,2.8,27.2,5.5c2.5,5.1,1.3,10.5,1.5,15.8
		c-1.1-2.3-1-4.9-1-7.3c-0.2-6.6-0.8-5.2-7-7.8c-3.5-1.5-7.7-1-11.3-1.9c-5.7-1.3-11.4-1.9-17.2-1.9c-12.6,0.1-24.8,2.9-36.9,6
		C211,100.4,211,99.7,211,98.9z"/>
	<path class="st9" d="M56.6,196c-8.5-0.3-16.9-1.2-25.3-2.1c-1.6-0.2-3.2-0.4-2.6-2.6c0.5-1.7,0.6-3.5,3.5-3
		c9.1,1.6,18.3,2.6,27.5,1.5c2.3-0.3,2.7,1,2.8,2.9c0.1,1.8,0.2,3.3-2.3,3.3C59.1,196,57.9,196,56.6,196z"/>
	<path class="st10" d="M368.5,62.7c0.2-4.2,2.2-6.5,6.3-7.2c2.6-0.4,5.1-1.1,7.7-1.2c5.3-0.3,6.3,0.6,7.1,5.7c0,0.5,0,1,0,1.5
		c-0.2,0.4-0.3,0.9-0.5,1.3c-6.5,0.1-12.7,2.5-19.1,3.1l0,0C369.7,64.8,369.4,63.6,368.5,62.7z"/>
	<path class="st10" d="M495.8,57c2.6,2.1,0.4,4.2,0,6.4c-1.3,0.3-2.3-0.5-3.5-0.9c-3.1-1.1-5.8-3.4-9.1-3.9
		c-3.9-2.1-8.2-3.1-12.5-4.2c-4.1-1-4.4-2-1.8-5.6c5.1,1,10.2,2.1,15.1,3.7c2.9,1,5.5,2.9,8.7,3.2C493.6,56.4,494.6,57,495.8,57z"/>
	<path class="st8" d="M399.6,51.1c4.8-7.1,12.1-10.1,20.1-11.6c3.3-0.6,3.5,2.6,4.1,4.7c0.6,2.2-0.7,3.2-2.9,3.2
		c-7.2,0.9-14,3.7-21,5.3c-0.1-0.2-0.3-0.3-0.5-0.4C399.5,51.9,399.5,51.5,399.6,51.1z"/>
	<path class="st7" d="M451.7,138.1c-9.4,2.4-18.9,3-28.5,1.7c-1.2-0.2-3.9,0.7-3.6-1.8c0.3-2.5,2.6-1.6,4.2-1.6
		c10.8,2.6,21.3,0.9,31.6-2.7c5.4-1.8,10.6-4.5,16.3-5.5c0,0.2,0.1,0.5,0.3,0.6c-0.4,1.9-1.7,2.9-3.4,3.4
		C462.9,134.3,457.3,136.2,451.7,138.1z"/>
	<path class="st9" d="M265.7,178.2c-0.8-2.2-2.3-4.8,2.2-4.2c4.8,2.3,9.8,3.9,15.1,4.3c1.6,1.1,3.4,1.1,5.2,0.6
		c0.8,0.6,1.7,1,2.7,0.8c4-0.7,5.2,1.5,5.4,5c-2.1,0.7-4.1,0.2-6.2,0c-6-0.5-11.8-2.1-17.7-3.6h0c-1-1-2.3-1.4-3.7-1.5l0,0
		C267.9,178.9,266.9,178.4,265.7,178.2z"/>
	<path class="st12" d="M280.6,92.9c-2,0.3-3.7-0.9-5.5-1.5c-11.3-3.6-22.9-4.2-34.6-3.3c-7.2,0.6-14.2,1.8-21.3,2.7
		c-0.8-1.2-2.1-0.7-3.2-0.9c21.3-6,42.6-7.1,63.8,0.6c0.6,0.2,1,0.6,1.6,1c-0.8,0-1.6,0.1-2.6,0.2C279.6,92.1,280.1,92.5,280.6,92.9
		z"/>
	<path class="st8" d="M180.9,101.3c-0.3,0-0.6-0.1-0.8-0.2c-0.5-0.3-0.9-0.5-1.4-0.8c-0.4-1.1-1.5-0.5-2.2-0.8
		c-2.2-0.8-1.6-2.4-1.4-3.9c0.3-1.9,1.9-1.5,2.9-1.2c6.9,2.4,13.9,1.7,21,1.2c1.2,0.2,0.9,1.3,1.3,1.9c0,1.1,0,2.1-0.1,3.2
		c-1,0.6-1.9,1.2-2.8,1.8c-3,0-6,0-8.9,0c-0.7-0.5-1.4-0.5-2.2-0.3c-1.4-0.2-2.8-0.5-4.1-0.7C181.8,101.5,181.4,101.4,180.9,101.3z"
		/>
	<path class="st8" d="M349,104.3c-0.3,0.2-0.6,0.5-0.9,0.7c-2.6,0-5,0.7-7.4,1.5c-8.8,2.3-17.8,2.2-26.8,2.2c-2.7,0-5.4-1-8.2-1.5
		c-1.6-0.3-2-1.1-1.7-2.6c0.3-1.8,1.5-1.4,2.5-1.1c7.6,1.9,15.3,1.6,23,1.6c4.1,0,8.1-0.4,11.9-1.8c1.9-0.7,3.9-0.6,5.9-0.5
		C347.6,103.5,348.1,104.1,349,104.3z"/>
	<path class="st9" d="M493.7,166.5c1.1-0.2,2.2-0.4,3.3-0.6c1.9-0.4,2.9,1,3.3,2.4c0.5,1.7-1.4,1.5-2.2,1.8
		c-6.9,1.8-14,2.5-21.1,2.1c-2-0.1-4-0.3-6-0.5c-2.4-0.2-2.3-2.3-2.9-3.8c-0.6-1.6,0.9-1,1.5-1.3C477.6,168,485.6,168.8,493.7,166.5
		z"/>
	<path class="st7" d="M59.2,157.5c0.6,3.3,0.9,6-3.3,7c-6.3,1.6-12.5,3.9-19,4.5c-1,0.1-2.8,1.3-2.9-0.8c-0.1-1.4-0.2-3.7,1.9-4
		C43.9,163.2,51.5,160.6,59.2,157.5z"/>
	<path class="st10" d="M422.5,48c0.9,0,1.9,0,2.8,0c1.2,4.8,1.2,4.8-3.8,6.2c-0.5,0.1-0.9,0.4-1.4,0.5c-6.2,1-12.1,4-18.5,3.7l0,0
		c-0.1-0.5-0.2-0.9-0.3-1.3c0.2-1.2-0.4-2.8,1.6-3.1c3.8-0.6,7.2-2.4,10.9-3.2C416.6,50.1,419.9,50,422.5,48z"/>
	<path class="st10" d="M43.7,43.4c-1.7-0.6-4.1,1.3-5.3-1.5c-0.2-2,0.2-3,2.6-3.4c6.6-1.1,13.3-0.9,19.9-1.1l0,0
		c2.5,0.4,4.4,1.4,3.7,4.5l0,0c-0.4,0.1-0.6,0.4-0.5,0.8L64,43C57.2,42.9,50.4,42.1,43.7,43.4z"/>
	<path class="st8" d="M76,81c-9.7,0-19.4,0-29.1,1.6c-1,0.2-2.5,0.9-2.5-1c0-1.4-0.7-3.4,1.7-3.8c5.7-1,11.3-1.5,17.1-1.6
		c1.7,0,2.6,1.4,3.7,2.3c1.2,0.9,2,1.4,3.2,0.4C71.9,80.1,74.9,78.2,76,81z"/>
	<path class="st7" d="M350.4,130.3c-1.8,0.2-3.6,0.4-5.3,0.6c-0.5-0.2-1-0.2-1.3,0.3c-2.2-1.1-4.3-2.2-7-3.5
		c9.6-1.4,18.6-2.8,27.8-2.4c2.7,0.1,4.3,1.8,6.3,4.7c-6.3,0-11.8,0-17.3,0C352.4,129.8,351.3,129.7,350.4,130.3z"/>
	<path class="st11" d="M357.9,60c-17.7,1-35.1-1.2-51.8-7.1c-1.2-0.4-2.8-1.9-3.9,0.2c-1.1,2,0.6,2.9,1.8,3.9c-1.6,0.1-3,0.1-3-2.2
		c0-2.2,0-4.1,2.9-4.1c1.1,0.1,2.1,0.2,3.2,0.3l0.2,0.1c0,0,0.2-0.1,0.2-0.1c2.4,0.7,4.8,1.4,7.2,2.1c7.2,1.4,14.2,3.7,21.7,3.9
		c6.4,2.2,13,1.5,19.6,0.7C356.6,58.3,357.9,58.5,357.9,60z"/>
	<path class="st11" d="M471.7,128.3c-5.7,1-10.9,3.6-16.3,5.5c-10.3,3.5-20.8,5.2-31.6,2.7c0.9-0.1,1.6-0.5,1.6-1.6
		c1.9,0,3.7,0.1,5.6,0.1c5.7,0,11.4,0.6,16.9-1.6l0,0c3.3-0.3,6.3-1.6,9.3-3c4.6-1.3,8.8-3.4,13.2-5.2
		C470,126.7,471.3,127.3,471.7,128.3z"/>
	<path class="st7" d="M213.8,135.6c1.3,0.3,2.5,0.6,3.8,0.9c0.5,0.2,1.1,0.3,1.6,0.5c0.9,0.3,1.8,0.7,2.8,0.9
		c1.8,0.3,3.4,0.7,3.1,3.1c-0.3,3-2.4,1-3.6,1.4c-1.3-0.3-2.7-0.6-4-0.9c-4.9-1-9.8-2-14.7-2.9c0-1.8-0.3-3.7,1.3-5.1
		c0.9,0.6,2,0.6,3,0.5c1.5,0.3,3,0.6,4.5,0.9C212.3,135.6,213,135.6,213.8,135.6z"/>
	<path class="st9" d="M407.5,154.5c0.8,0.1,1.9,0,2.5,0.4c1,0.6,1.5,1.8,1.4,2.9c-0.2,1.4-1.5,1-2.4,1c-6.9,0.1-13.6,1.7-20.1,3.6
		c-3.8,1.1-4.3,0-3.9-3.2c0.5-0.2,1.1-0.5,1.6-0.8l0.1,0C393.6,157.1,400.6,155.8,407.5,154.5z"/>
	<path class="st8" d="M469.3,46.6c1.9-4.9,4.6-6,9.6-4.1c5.5,2.1,9.5,6.4,13.9,10c-0.3,1-1.2,1-1.8,0.7c-6.4-3.4-13.4-4.6-20.5-5.8
		C470.1,47.3,469.7,46.9,469.3,46.6z"/>
	<path class="st7" d="M102,144.7c0.4,1.3-0.7,1.2-1.1,1.7c-2.6,2.6-6,3.2-9.3,4.2c-1.4,0.4-2.9,0.7-4.2,1.4
		c-1.1,0.6-1.7,3.2-3.1,0.4c-0.9-1.8-2.3-3.6,0.8-5c4.3-2,8.6-3.8,13.1-5.4C101.1,140.9,101.3,143.1,102,144.7z"/>
	<path class="st9" d="M438.1,158.9c1.7,1.7,0.7,3.7,0.5,6.1c-6.1-3.1-12.1-5.5-18.6-6.5c-2.3-0.3-2.1-2.7-2-4.6
		c1.7,0.1,3.3,0.2,5,0.3c1.3,0.3,2.6,0.6,3.8,1c1.5,0,3.1,0,4.6,0.1h-0.1c1.1,2.6,3.8,2.3,5.8,3.2l0.1-0.1
		C437.5,158.5,437.8,158.7,438.1,158.9z"/>
	<path class="st7" d="M402.9,130.4c0.5,1.5,1,3.1,1.5,4.6c-0.9-0.2-1.9-0.4-2.9-0.7c-6.5-1.8-12.9-3.5-19.7-3.9
		c-2.5-0.4-1.1-3-2.8-4.1c2.2-0.8,4-0.2,5.8-0.3C390.9,127.5,396.9,128.9,402.9,130.4z"/>
	<path class="st9" d="M194.8,72.4c3.3,5.6,4.2,11.9,5,18.2c0.2,1.5-0.3,2.2-1.9,2.5c-6.7,1-13.2,0.8-19.6-1.4
		c-1.7-0.6-2.8-1.4-2.7-3.4c0.2-8.5-2.7-15.6-9.8-20.6l0.2-0.2c0.9,0.1,1.7,0.2,2.5,0.7c5.7,3.9,7.9,9.6,7.9,16.2
		c0,3.7,1.3,6,4.9,6.8c5.3,1.2,10.5,1.5,15.9,0.3c1.5-0.3,1.8-0.9,1.4-2.3c-1.3-4.1-0.9-8.7-3.6-12.4c-0.9-1.2-0.5-2.7-0.6-4
		C194.5,72.6,194.7,72.5,194.8,72.4z"/>
	<path class="st13" d="M168.9,115.5c-0.3,4.8-4.4,6.2-7.6,8.7c7-0.2,13.8,1.6,20.7,1.8c1.8,0.1,3.8-0.3,4.8,1.8
		c-14-1.9-28-1.9-42-0.4c0.1-2.1-3.3-0.8-2.9-3.1c9.3,3.3,17.3,0.9,24.1-5.9C167.1,117.4,168,116.4,168.9,115.5z"/>
	<path class="st8" d="M123.1,76.3c3.9-0.1,7.3,1.5,10.9,2.7c1.4,0.5,1,1.2,0.6,2.2c-0.7,1.7-1.3,3.7-3.6,3.3
		c-3.6-0.7-7.2-1.8-10.7-2.7c-1.2-0.3-1.9-1.2-1.7-2.4c0.2-1.4,0.8-2.7,2.3-3C121.5,76.2,122.3,76.3,123.1,76.3z"/>
	<path class="st12" d="M427.6,93.8c-0.5,0-0.9,0-1.4-0.1c-0.8-0.4-1.3-0.9-1.6-1.7c6.8-1.2,13.7-1.1,20.4-0.3
		c4.5,0.5,9.1,0,13.6,1.2c3.9,1,8.1,1.1,11.8,3c-1.2,0.2-2.6-0.5-3.7,0.6c-5-0.4-9.7-2.3-14.8-2.2C443.8,93.4,435.8,92.4,427.6,93.8
		z"/>
	<path class="st1" d="M76,81c-1.1-2.8-4.1-0.9-5.8-2.3c5.6-4.2,11.8-2.2,17.9-1.5c1,0.1,2.1,0.5,3.2,0.7c0.9,0.2,2.2-0.5,2.6,0.7
		c0.3,1-0.6,1.8-1.4,2.4c-3.5,0-7.1-0.1-10.6-0.1c-1.5,0-3-1.5-4.4,0.1C76.9,81,76.5,81,76,81z"/>
	<path class="st7" d="M267.3,147.2c0-0.7,0-1.3,0-2c0.2-0.1,0.2-0.3,0.1-0.5c6.7-0.9,13.4-2,20.1-2.6c2.1-0.2,1.4,2.5,2,3.8
		c-2.2,0.2-4.5,0.7-6.7,0.7C277.7,146.6,272.5,148.4,267.3,147.2z"/>
	<path class="st8" d="M390.9,91.3c1.7,0.5,4.1-0.9,5.1,1.7c0.7,2.4-0.8,2.2-2.4,2.3c-5.9,0.4-11.9,0.2-17.7,2
		c-0.4-0.1-0.9-0.1-1.3-0.2c-0.1-0.9-0.2-1.8-0.2-2.7C379.7,92.8,385.4,92.6,390.9,91.3z"/>
	<path class="st7" d="M319.8,130.5c1.6,3.2,1.2,3.9-2.4,5.4c-4.1,1.2-8.2,2.6-12.1,4.5c-1.7-1.7-1.7-3.8,0.1-4.8
		c0.9-0.5,2-0.9,3-1.3c0.8,0,1.6-0.1,2.1-0.7c2.5-0.8,5-1.6,7.6-2.4C318.9,131.4,319.7,132,319.8,130.5z"/>
	<path class="st10" d="M98.4,48c0.1-0.2,0.2-0.4,0.2-0.6c1-0.8,1.9-1.9,3.5-1c3,1.7,6.2,3.1,9.2,4.7c1.8,1,3,2.6,2,4.9l0.1,0
		c-1.7,0.5-3.1-0.2-4.5-1.1c-2.8-1.7-5.7-3.2-9-4l0,0C98.9,50.2,98.1,49.4,98.4,48z"/>
	<path class="st6" d="M369.9,65.9c6.4-0.6,12.6-3,19.1-3.1c2.6,0.5,1.7,2.5,1.8,4c-0.7-1.6-1.6-2.4-3.7-1.9c-4.6,1.2-9.2,2-13.9,2.8
		c-2.6,0.4-3.8,1.1-2.9,4.1c0.7,2.5,1.2,5.1,1,7.7c-0.6-0.1-1.3-0.3-1.4-1c-0.4-2.7-0.4-5.5-1.5-8.1
		C367.7,68.5,369.6,67.4,369.9,65.9z"/>
	<path class="st11" d="M199.8,167.3c-0.5,0.5-1,0.4-1.6,0.2c-1-2.5-1.4-4.9,0.6-7c0,4.8,0,4.7,5.1,4.6c6-0.1,12-0.3,17.9,0
		c3.5,0.2,4.8-0.9,4.2-4.3c-0.2-1.1,0-2.2,0-3.3c2.7,1.6,1,4.2,1.3,6.3c0.7,3.9-3,2.1-4.4,3.2c-7-0.6-14-0.5-21,0.1
		C201.2,166.6,200.3,165.6,199.8,167.3z"/>
	<path class="st11" d="M451.7,138.1c5.7-1.9,11.3-3.8,16.9-5.7c1.8-0.6,3.1-1.5,3.4-3.4c1.8,1,0.4,3.1,1.3,4.4
		c-6.1,1.9-11.9,4.8-18.2,6.2c-1.8,0.4-1.6,1.3-0.4,2.3c0.7,0.6,1.4,1.1,1.6,2C452.4,143.8,452.1,140.9,451.7,138.1z"/>
	<path class="st8" d="M152.4,53.4c-1.8-2,0.1-2.1,1.3-2.3c7-1.1,13.9-0.7,20.5,2.1c-1.3,0.8-2.8,0.9-4.2,0.9c-4.2,0-8.3,0-12.5,0
		C155.9,53.9,154.1,53.6,152.4,53.4z"/>
	<path class="st12" d="M113.4,182.8c5.6-3,11.2-5.9,16.7-8.9c1.2-0.7,2.6-1.2,1.4-3c1.7,0.3,1.7,2.8,3.6,2.7
		c-5.8,3.5-11.2,7.8-17.7,10.2C116.3,182.9,114.8,182.8,113.4,182.8z"/>
	<path class="st12" d="M401.5,58.4c6.5,0.4,12.3-2.7,18.5-3.7c0.5-0.1,0.9-0.4,1.4-0.5c5.1-1.4,5.1-1.4,3.8-6.2
		c1.9,0,1.6,1.4,1.6,2.6c0,1.7-0.1,3.4,0.7,4.9c-5.4-0.2-10.2,2.5-15.5,3.2c-2.2,0.3-4.3,1-6.5,1.4c-1.9,0.3-2.1,1.3-1.3,2.8
		C402.3,62.1,402.4,59.9,401.5,58.4z"/>
	<path class="st12" d="M407.5,154.5c-6.9,1.3-13.9,2.6-20.8,3.9c-3.1-1.7-3.7-4.4-3.2-7.7c2,4.9,2,4.8,7.4,3.9
		c3.5-0.6,6.9-2.2,10.5-1.7C402.8,155.9,405.5,153.7,407.5,154.5z"/>
	<path class="st12" d="M272.5,181.4c5.8,1.4,11.6,3.1,17.7,3.6c2.1,0.2,4.2,0.6,6.2,0c-2.4,2.4-5.5,0.1-8.1,1.4
		c1.5,1.1,3.6-0.4,5.1,1c-7.9,0.7-15.4-1-22.5-4.3C271.8,182.9,272.4,182.4,272.5,181.4z"/>
	<path class="st12" d="M149.4,54c-2.4-0.2-4.9-1.1-7.1,0.6c-0.6,0.5-1.8,0.6-1.8,1.7c0,1.1,1.2,1.2,1.9,1.5
		c4.2,1.9,8.7,2.5,13.1,3.7c0.2,0.5,0.5,1,0.8,1.5c-3.2-1-6.3-2.6-9.8-0.7c-3.2-0.6-6.2-1.8-8.9-3.8c0.8-0.3,2.9,1.3,1.8-1.8
		c-1.2-3.5,2.7-3.2,4.6-4c1.6-0.6,3.6-0.2,5.5-0.2l0.1,0.1C149.5,53,149.4,53.5,149.4,54z"/>
	<path class="st13" d="M86.8,90.9c-0.1-4.8-0.7-5.3-8-5.4c-8.7-0.1-17.4-0.1-26.2-0.1c6.2-1.4,12.6-1.3,18.9-1.2
		c5.3,0.1,10.7,0.8,16,1c3,0.1,2.8,1.3,1.3,3C88.1,89.2,88,90.4,86.8,90.9z"/>
	<path class="st12" d="M303.9,57c6.6,1.6,13.1,3.6,19.5,5.8c-1.1,0.3-2.7-0.5-3,1.5c-6.1-1.5-12.1-3.5-18-5.6
		C303.1,58.4,304,58.1,303.9,57z"/>
	<path class="st11" d="M375.9,97.4c5.8-1.8,11.8-1.6,17.7-2c1.6-0.1,3.1,0,2.4-2.3c1.7,1.2,0.6,2.9,0.9,4.4c-2.5-0.4-5-0.3-7.6,0
		c-0.5,0-0.9,0-1.4,0c-1.8-0.1-3.6-0.2-5.3,0.5c-0.7,0.3-1.3,0.7-2,0.9c-5,0.9-5,0.9-4.8,6.1c-1.8-1.7-1.3-3.9-1.4-6
		C375.1,98.6,375.6,98.1,375.9,97.4z"/>
	<path class="st11" d="M469.3,46.6c0.4,0.3,0.8,0.7,1.2,0.8c7,1.2,14.1,2.4,20.5,5.8c0.6,0.3,1.5,0.3,1.8-0.7c1.6,0,1.5,1.1,1.5,2.2
		l0,0c-0.5,0-1.1,0-1.3,0.6c-0.1,0.1-0.2,0.2-0.3,0.2c-3.2-0.2-5.8-2.2-8.7-3.2c-5-1.7-10-2.7-15.1-3.7
		C468.9,48,468.7,47.2,469.3,46.6z"/>
	<path class="st12" d="M493.7,166.5c-8.1,2.4-16.1,1.6-24.2,0c0.6-0.4,2.4,0.7,1.6-1.4c6.7,1,13.4,0.6,20.2-0.1
		C490.5,166.3,490.5,166.3,493.7,166.5z"/>
	<path class="st11" d="M152.4,53.4c1.7,0.2,3.4,0.5,5.1,0.7c4.5,1.4,9.1,0.6,13.7,0.8c1.7,1.2,3.6,0.2,5.3,0.7
		c-9.2,2.6-18.3,2.1-27.1-1.5C150.4,53.8,151.6,54.2,152.4,53.4z"/>
	<path class="st11" d="M202.7,138.6c4.9,1,9.8,2,14.7,2.9c1.3,0.3,2.7,0.6,4,0.9c0.1,0.2,0.1,0.7,0.2,0.7c6.5,1.1,3.9,6.1,4.2,9.9
		c0.1-6.8-4-9.2-10-9.8c-4.6-0.5-9-2.7-13.9-2.1C202.3,140.2,202.5,139.4,202.7,138.6z"/>
	<path class="st11" d="M422.5,48c-2.6,2-5.8,2-8.7,2.7c-3.8,0.8-7.2,2.6-10.9,3.2c-2.1,0.3-1.5,1.9-1.6,3.1c-0.4,0-0.8,0-1.2,0
		c0-1.5,0-2.9,0-4.4c7-1.6,13.8-4.4,21-5.3C421.4,47.6,421.9,47.8,422.5,48z"/>
	<path class="st11" d="M61,37.5c-6.7,0.2-13.3,0-19.9,1.1C38.7,39,38.2,40,38.4,42c-2.7-1.2-1-3.5-1.4-5.3c3,0.4,6-0.2,9-0.7
		c3.2-0.1,6.4-0.3,9.6-0.4c1.3,0,2.7,0,4,0c0.5,0.1,0.9,0.3,1.4,0.4C61,36.5,61,37,61,37.5z"/>
	<path class="st11" d="M381.9,130.4c6.8,0.4,13.2,2.1,19.7,3.9c0.9,0.3,1.9,0.5,2.9,0.7c0.4,1.5,2.1,2.5,1.5,4.4
		c-1-1.9-2.5-2.8-4.5-3.5c-6.3-2.2-13-2.7-19.5-4.1C381.9,131.4,381.9,130.9,381.9,130.4z"/>
	<path class="st11" d="M267.3,147.2c5.2,1.2,10.4-0.6,15.6-0.5c2.2,0.1,4.5-0.4,6.7-0.7c0.3,0.8,0.9,1.6,0.7,2.6
		c-0.5-0.1-0.9-0.1-1.4-0.2c-2,0-4,0.1-6,0.1c-4.6,0-9.1,0.2-13.5,1.3l0,0c-0.7,0-1.5,0-2.2,0C267.9,149,267.2,148.1,267.3,147.2z"
		/>
	<path class="st11" d="M113.3,56c1-2.3-0.2-3.8-2-4.9c-3-1.7-6.2-3.1-9.2-4.7c-1.6-0.9-2.5,0.2-3.5,1c-0.8-2.7,2-2,2.9-3.1
		c1.1,0.3,2.2,0.6,3.2,0.9c0.7,0.9,1.6,1.2,2.7,1.4l0,0c0.9,0.8,1.9,1.3,3.1,1.5l0.3,0.1c1.7,1.1,3.3,2.3,5,3.4
		C113.8,52.4,116.6,55.9,113.3,56z"/>
	<path class="st11" d="M449.4,102.4c-3.1-0.5-6.2-0.8-9.4-0.5c-4.1-1.1-8.3-0.7-12.4,0l-0.1-0.1c0.4-0.6,0.8-1.2,0.1-1.9
		c7.3-0.7,14.6,0.1,21.9,0.3l-0.1,0.3C449.4,101.1,449.4,101.8,449.4,102.4z"/>
	<path class="st11" d="M303.9,151.4c-0.1,7.9-0.2,15.8-0.3,23.7c0,0.7,0.2,1.2,0.4,1.7c-1.4-0.1-1.5-1-1.5-2.1c0-7.1,0-14.1,0-21.2
		C302.4,152.5,302.6,151.6,303.9,151.4z"/>
	<path class="st11" d="M305.4,140.4c3.9-1.9,7.9-3.3,12.1-4.5c0.8,1,3-0.1,2.9,2.1c-3.9,0.7-7.7,2-11.3,3.5c-1.2,0.5-2.3,1-3.5,1
		C305.5,141.8,305.4,141.1,305.4,140.4z"/>
	<path class="st13" d="M447.9,133.4c-5.5,2.2-11.2,1.7-16.9,1.6c-1.9,0-3.7-0.1-5.6-0.1l0,0c-0.8-0.8-1.9-0.7-3-0.7
		c-0.2-0.1-0.3-0.2-0.5-0.2c0.1-0.7,0.2-1.4,0.4-2.1c0.2-0.2,0.2-0.3,0.2-0.6c0.4-0.6,0.9-1.2,1.3-1.9c-0.4,3.3,1.1,3.9,4.2,4.1
		C434.7,133.9,441.3,133.2,447.9,133.4z"/>
	<path class="st12" d="M483.2,58.6c3.4,0.5,6,2.8,9.1,3.9c1.2,0.4,2.2,1.3,3.5,0.9c-2.2,1.2-0.3,4.5-2.9,5.5c1.2-2.3,0.6-3.8-2-4.8
		c-2.9-1.2-5.7-2.8-8.6-4.2C483.6,60,483.6,59.4,483.2,58.6z"/>
	<path class="st11" d="M402.9,130.4c-6-1.4-12-2.9-18-4.3c-0.2-0.5-0.5-1-0.7-1.5c6.4,0.3,12.4,3,18.7,3.8
		C402.9,129,402.9,129.7,402.9,130.4z"/>
	<path class="st12" d="M129.9,169.5c-1.7-0.9-3.1-0.5-4.8,0.3c-2.8,1.4-5.2,3.7-8.6,4.1c0-0.5-0.1-1.1-0.1-1.6c3-2,6-4,9-6
		c0.1,1.4,1,1.7,2.2,1.7C128.7,167.9,129.9,167.9,129.9,169.5z"/>
	<path class="st11" d="M350.4,130.3c0.9-0.6,2-0.5,3-0.4c0,0.2,0,0.3,0,0.5c-0.2,0.2-1-0.3-0.8,0.6c0.3-0.2,0.5-0.4,0.8-0.5
		c5.4,0,10.9,0,16.3,0c1.2,0,2.9-0.5,3,1.7c-7.5-0.1-14.9-0.1-22.4-0.2C350.4,131.4,350.4,130.8,350.4,130.3z"/>
	<path class="st12" d="M283,178.4c-5.3-0.5-10.3-2-15.1-4.3c0-0.6,0-1.1,0.1-1.7c5.5,1.5,10.7,3.8,16.4,4.6
		C283.9,177.5,283.4,178,283,178.4z"/>
	<path class="st6" d="M390.9,91.3c-5.5,1.3-11.2,1.4-16.6,3.1c-1.9-1.1-1.3-2.9-1.4-4.5c0.8,2,1.8,2.5,4.2,1.9
		c4.5-1.1,9.1-1.8,13.8-1.8C390.9,90.5,390.9,90.9,390.9,91.3z"/>
	<path class="st11" d="M318.9,175.4c0.3-7.3,0.6-14.6,1-21.8c0.1-1.2-0.2-2.5,0.5-3.6c0,6.5,0,13,0,19.4c0,1.1-0.4,2.4,0.4,3.3
		C323.8,176.1,320.6,175.2,318.9,175.4z"/>
	<path class="st13" d="M348.9,122.9c0.3-1.8,1.8-1.4,2.9-1.4c2.8,0,5.7,0,8.4,0c0.6-1.5-1.2-2.1-0.8-3.3c1.9,0.9,3.5,2.2,5.7,4.8
		C359.1,122.9,354,122.9,348.9,122.9z"/>
	<path class="st13" d="M110.4,103.3c0,7.9,0,15.7,0,23.6C108.5,119,108.5,111.2,110.4,103.3z"/>
	<path class="st8" d="M355.7,57.7c-6.6,0.8-13.1,1.5-19.6-0.7c4.7,0,9.3,0,14-0.1c1.2,0,2.9,0.7,3.3-1.4
		C354.3,56,355.2,56.7,355.7,57.7z"/>
	<path class="st8" d="M265.4,198.3c3.1,0.6,6.3,1.1,9.3,1.9c2.4,0.6,4.7,1.2,7-0.3c1.6-1,3.3-0.6,4.9,0.3
		C279.4,202.1,272.2,202.6,265.4,198.3z"/>
	<path class="st11" d="M99.9,51c3.2,0.8,6.1,2.3,9,4c1.4,0.8,2.8,1.6,4.5,1.1c-1.2,1.9-3.2,0.5-4.7,1c-3.1-1.5-6.2-3.1-9.3-4.7
		C99.6,52,99.7,51.5,99.9,51z"/>
	<path class="st13" d="M428.2,109.1c1.2,7.2,0.3,13.9-4.3,19.8c0-0.5,0-1,0-1.5c1.7-3.3,2.6-6.8,2.9-10.6
		C428.3,114.5,427.2,111.6,428.2,109.1z"/>
	<path class="st11" d="M311.3,178.4c-2.4,0.8-4.8,1-7.3,1c0-0.9,0-1.7,0-2.6c4.5,0.1,8.9-1.6,13.4-1.2c0,0.4,0,0.8,0,1.2
		C315.4,177.5,312.7,175.5,311.3,178.4z"/>
	<path class="st7" d="M449.5,100.2c-7.3-0.2-14.6-1-21.9-0.3c-0.8-0.4-0.9-1-0.6-1.7c5.2,1.6,10.5,0.4,15.8,0.7c2.8,0.2,5.7,0,9.1,0
		C450.7,99.6,450.1,99.9,449.5,100.2z"/>
	<path class="st12" d="M62.5,44.8c-5.5,0-11,0-16.5,0c0-0.4,0-0.8,0-1.2c5.5,0,11,0,16.5,0C62.5,44,62.5,44.4,62.5,44.8z"/>
	<path class="st11" d="M198.9,104.7c-6,0.5-12.1,0.9-17.9-1.3c5,0,9.9,0,14.8,0.1C197,103.5,198.4,102.9,198.9,104.7z"/>
	<path class="st8" d="M36.3,197.8c-1.5,0-3.1,0-4.7,0.1c-3.7,0-4.8,1.6-3.2,5.1c0.5,1.1,1.2,2.1,1,3.4c-1.2-0.8-1.8-2-2.2-3.3
		c-1.9-5.1-0.5-6.9,4.8-6.1C33.4,197.2,34.9,197.6,36.3,197.8z"/>
	<path class="st13" d="M83.8,115.9c-4.5-3.1-5.5-12.4-1.7-15.5C80.1,105.8,81.6,110.9,83.8,115.9z"/>
	<path class="st12" d="M312.2,102.2c7.5,0.6,15,0.9,22.4,0C327.2,104.3,319.7,104.3,312.2,102.2z"/>
	<path class="st11" d="M283,178.4c0.5-0.5,0.9-0.9,1.4-1.4c2.4-0.2,4.7,0,7,0.5c2.3,0.5,4,0,3.6-2.9c1.1,0.6,1.7,1.6,1.2,2.8
		c-0.4,1.2-1.6,0.9-2.6,1c-1.8,0.2-3.7-0.7-5.4,0.6C286.4,179.5,284.6,179.6,283,178.4z"/>
	<path class="st13" d="M91.3,128.8c-2.6,0-2.7-2.8-3.6-4.1c-1.8-2.5-3.9-5.3-3.8-8.8C86.5,120.1,89.6,124,91.3,128.8z"/>
	<path class="st11" d="M197.4,119.9c0.8-5,1.5-9.9,2.3-14.9c1.5,1.9,1.2,4.3,0.5,6C199.1,113.9,200.1,117.5,197.4,119.9z"/>
	<path class="st10" d="M267.2,149.8c0.7,0,1.5,0,2.2,0c-2,3.1-1.3,6.6-1.5,9.9c-0.1,1.3,0.8,3.1-1.4,3.7
		C266.5,158.9,266.4,154.3,267.2,149.8z"/>
	<path class="st13" d="M335.4,109.5c-0.2,1.1-0.9,1.4-1.9,1.4c-7,0-13.9,0-20.9-0.1c-0.4,0-0.8-0.5-1.2-0.7
		C319.4,110.2,327.4,110.7,335.4,109.5z"/>
	<path class="st13" d="M305.5,109.4c0,6.5-0.1,12.9-0.1,19.3c0,1.5-0.2,3.1,1.9,3.4c-0.7,0.4-1.3,0.8-2,1.3
		c-0.3-0.2-0.8-0.5-0.8-0.7c-0.1-7.7-0.1-15.4-0.1-23.1c0-0.2,0.3-0.4,0.4-0.5C305.1,109.1,305.3,109.3,305.5,109.4z"/>
	<path class="st6" d="M393.8,81.8c-1.6-4.7-2.5-9.5-2.9-14.4c2.5,2.9,1.9,6.7,2.9,10C394.2,78.8,393.9,80.4,393.8,81.8z"/>
	<path class="st8" d="M491.1,174.5c0.8,0.1,1.7,0.2,2.5,0.3c0,0.2,0,0.5,0,0.7c-7.7,0-15.4,0-23.1,0c1.8-2,4.1-0.8,6.1-0.9
		C481.4,174.1,486.2,174.4,491.1,174.5z"/>
	<path class="st8" d="M59.6,35.6c-1.3,0-2.7,0-4,0c-2.4-0.2-4.9-0.4-7.3-0.6c0-0.2,0-0.4,0-0.6c5.7,0,11.3,0,17,0
		c0.1,1.9-1.1,1.5-2.2,1.3C62,35,60.8,35.1,59.6,35.6z"/>
	<path class="st11" d="M423,154.1c-1.7-0.1-3.3-0.2-5-0.3c-0.4-0.9-1.8-1.3-1.4-2.7c3,0.6,6.1,0.1,8.9,1.7
		C424.8,153.5,422.8,151.8,423,154.1z"/>
	<path class="st12" d="M304,183.2c5,1.3,9.9-0.8,14.8-0.4c0,0.7-0.2,1.4-0.9,1.4c-4.4,0.1-8.9,0.5-13.3-0.2
		C304.4,184,304.2,183.5,304,183.2z"/>
	<path class="st11" d="M224.7,135.6c-0.2-5.1-1-10.2,1.2-15.1c0.8,4.4-1.6,8.8,0,13.3C226,134.5,225.4,135.2,224.7,135.6z"/>
	<path class="st11" d="M190,137.8c-5.3-0.2-10.5-0.6-15.8-1.4c4.3,0,8.6,0,12.9,0C188.2,136.4,189.7,136,190,137.8z"/>
	<path class="st13" d="M44.4,95c0,5,0.1,10,0,15c0,0.7,0.8,2.3-1.2,1.7C43.6,106.1,44,100.6,44.4,95z"/>
	<path class="st7" d="M349,104.3c-0.9-0.2-1.4-0.8-1.6-1.6c1.7-2,4.2-1.7,6.6-2.2C352.7,102.2,351.8,104.3,349,104.3z"/>
	<path class="st11" d="M319.4,128.8c2.4-4.5,6.5-2.4,10-2.7c-0.3,0.4-0.6,1.1-0.8,1.1C325.4,127.2,322.4,127.8,319.4,128.8z"/>
	<path class="st6" d="M364,84.7c1.1-5.3,1-10.5-0.2-15.7c0.3,0.1,0.9,0.1,1,0.3C366.1,71.4,365.5,82.7,364,84.7z"/>
	<path class="st11" d="M62.5,43.6c-5.5,0-11,0-16.5,0c-0.8,0-1.5-0.1-2.3-0.2c6.7-1.3,13.5-0.5,20.3-0.4
		C63.5,43.2,63,43.4,62.5,43.6z"/>
	<path class="st12" d="M327.8,181.3c3.9-1.4,8-2.2,12.1-2.8c-0.2,1.3-1.1,1.4-2.1,1.4c-1.1,0-2.2-0.1-2.4,1.5l0,0
		C332.9,181.4,330.3,181.3,327.8,181.3z"/>
	<path class="st6" d="M350.4,98.9c2.9-1.8,6.9-1.2,9-4.5c0.1,3.1-1.4,4.6-4.5,4.5C353.4,98.9,351.9,98.9,350.4,98.9z"/>
	<path class="st9" d="M185.2,61.5c3.9,0,5,3,6.5,5.7c-0.1,0.1-0.2,0.2-0.3,0.3c-2.9-1.7-4.6-5.7-8.9-4.5c-0.1-0.1-0.2-0.2-0.3-0.3
		c0-0.2,0-0.4,0-0.5l0.2,0l0.1-0.2C183.5,62.2,184.4,62.1,185.2,61.5z"/>
	<path class="st8" d="M46,36c-3,0.5-5.9,1.1-9,0.7c-0.2-1.8-0.9-3.8,1.3-4.9c0.3,4.5,0.7,4.8,5,3.9C44.4,35.5,45.2,35,46,36z"/>
	<path class="st7" d="M171.3,54.9c-4.6-0.2-9.2,0.6-13.7-0.8c4.2,0,8.3,0,12.5,0c1.5,0,2.9-0.1,4.2-0.9c0.8,0.1,1.9,0.3,0.6,1.1
		C173.9,54.8,172.5,54.7,171.3,54.9z"/>
	<path class="st12" d="M110.6,176.9c-2.5,1.8-5.3,2.9-8.3,3.5c0.3-0.7,0.5-1.4,0.8-2.1c0.9-0.5,1.9-1,2.8-1.5
		C107.4,176.9,109,176.9,110.6,176.9z"/>
	<path class="st8" d="M264.3,188.1c1.4,3.2,0.1,6.8,1,10.1C263.1,196.2,262.6,191.9,264.3,188.1z"/>
	<path class="st12" d="M99.5,181.5c-0.2,4.4,1,5.2,6.4,4.3c-1.8,2.8-4.1,2.1-6,0.5C98.5,185.2,96.6,183.3,99.5,181.5z"/>
	<path class="st8" d="M77.4,81c1.4-1.6,3-0.1,4.4-0.1c3.5,0,7.1,0.1,10.6,0.1c-0.3,1.3-1.3,1.4-2.3,1.3C85.9,81.9,81.7,81.4,77.4,81
		z"/>
	<path class="st8" d="M307,51c-1.1-0.1-2.1-0.2-3.2-0.3c0.7-3.4,3.7-3.3,6.2-4.1C309.6,48.5,306,48.3,307,51z"/>
	<path class="st12" d="M137.5,58.4c-3.3,0.2-4.7,3.6-7.5,4.7c0.9-2.6,3.1-4,5-5.7C135.9,56.6,137.1,56.8,137.5,58.4z"/>
	<path class="st11" d="M165.2,136.4c-4.5,0.8-8.9,1.6-13.5,1.3C156,135.4,160.7,136.7,165.2,136.4z"/>
	<path class="st11" d="M219.2,137c-0.5-0.2-1.1-0.3-1.6-0.5c1-0.9,0.6-1.4-0.5-1.6c-1-0.1-1.8-0.4-2.4-1.4c3.2,0.8,6.4,1.6,9.7,2.4
		C222.8,137.2,220.7,135.6,219.2,137z"/>
	<path class="st11" d="M340.7,106.5c2.4-0.8,4.8-1.5,7.4-1.5c0.1,1.1,0,2.2-1.1,2.9c-1.4-1.7-2.8-0.1-4.2,0
		C342.8,106.3,341.7,106.6,340.7,106.5z"/>
	<path class="st11" d="M428.2,109.1c-1,2.5,0.1,5.4-1.4,7.8c0.4-5-0.7-10.1,0.7-15l0.1,0.1c0.2,2.1-0.2,4.2,0.6,6.2
		C428.2,108.5,428.2,108.8,428.2,109.1z"/>
	<path class="st12" d="M49,74.9c3.1-1.4,6.4-1.5,9.8-1.3c-0.8,2.3-2.7,1.2-4.2,1.3C52.7,75.1,50.8,75,49,74.9z"/>
	<path class="st9" d="M93.7,56c-1,3-1.5,6.3-5.5,7C89.7,60.3,91.5,58,93.7,56z"/>
	<path class="st12" d="M43,68.2c0.2,1.2,0.5,2.4,0.6,3.6c0.1,2.6,1.3,3.8,3.9,3.3c-0.4,1.8-1.8,1.4-2.9,1.2C43.2,76,43,74.9,43,73.7
		C43,71.9,43,70.1,43,68.2z"/>
	<path class="st6" d="M371.4,80.1c1,3.2,1.7,6.4,1.5,9.8c-1.9-0.2-1.5-1.6-1.6-2.8C371.4,84.8,371.4,82.5,371.4,80.1z"/>
	<path class="st12" d="M311.3,178.4c1.4-2.9,4.1-0.9,6.1-1.5c1.3,0,2.6,0.1,3.8,0.1C318,178.1,314.7,178.5,311.3,178.4z"/>
	<path class="st13" d="M336.9,124.4c0.3-1.8,1.7-1.4,2.9-1.5c2.6,0,5.2,0,7.7,0C344,123.8,340.4,124.1,336.9,124.4z"/>
	<path class="st13" d="M389.3,97.4c2.5-0.3,5-0.4,7.6,0c0,1,0,2,0,3C394.8,98.3,391.6,99,389.3,97.4z"/>
	<path class="st11" d="M173.3,61.4c3-0.9,6-1.6,9.1-1.5c0,0.5,0,1,0,1.6l0,0C179.4,61.5,176.4,61.4,173.3,61.4z"/>
	<path class="st12" d="M437.2,158.4c-2.1-0.9-4.7-0.6-5.8-3.2c1.6-0.4,3.1,0.3,4.6,0.7c0,1,0.6,1.4,1.5,1.5
		C437.3,157.7,437.2,158,437.2,158.4z"/>
	<path class="st8" d="M115.8,51.5c-1.7-1.1-3.3-2.3-5-3.4c2.6-0.6,4.5,2,7,1.4C117.5,50.5,116.9,51.2,115.8,51.5z"/>
	<path class="st12" d="M369.1,169.4c1.5-1.3,3.5-1.4,5.3-2.1c-0.4,1.2,1,2.2,0.4,3.4c-0.6-0.7-1.3,0-1.9-0.1
		C372.2,168.5,370.4,169.8,369.1,169.4z"/>
	<path class="st12" d="M318.9,182.8c2.7-1.1,5.4-1.4,8.3-1.4C324.8,184.2,321.6,182.4,318.9,182.8z"/>
	<path class="st11" d="M200.4,151.4c0.3,2.6-0.2,5.1-1.4,7.5C199.5,156.4,197.4,153.4,200.4,151.4z"/>
	<path class="st13" d="M83.6,96.8c-0.5-2.8,0.6-4.8,3.2-5.9C86.2,93.1,85,95,83.6,96.8z"/>
	<path class="st11" d="M346,166.5c-0.3,1.9,1.2,1.3,2.1,1.5c-1.1,1.7-2.9,2.1-4,0.8C343.4,168,344.4,166.5,346,166.5z"/>
	<path class="st12" d="M429.9,62.1c-1.4-2-1.8-4.3-2.4-6.6C430.9,56.8,429.6,59.7,429.9,62.1z"/>
	<path class="st11" d="M381.2,132c-0.4,2.3,1.1,4.4,0.6,6.7C379.7,136.6,379.8,134.3,381.2,132z"/>
	<path class="st9" d="M191.7,67.2c1.7,1.4,2.5,3.2,3.1,5.2c-0.1,0.1-0.3,0.2-0.4,0.3c-1.8-1.3-2.4-3.2-3-5.2
		C191.5,67.4,191.6,67.3,191.7,67.2z"/>
	<path class="st11" d="M206.4,132c2.4,0,4.7,0.4,6.8,1.4C210.9,133.3,208.4,134,206.4,132z"/>
	<path class="st6" d="M344.4,100.4c1.9-0.9,3.9-1.5,6-1.5C349,102,346.4,99.8,344.4,100.4z"/>
	<path class="st6" d="M396.1,71.8c1,1.9,0.8,3,0.2,4.9C395.1,74.8,395.2,73.6,396.1,71.8z"/>
	<path class="st9" d="M97.9,52.4c-1.7,0.9-2.2,3.1-4.2,3.7C94.4,54,94.8,51.6,97.9,52.4z"/>
	<path class="st11" d="M440.3,155.9c0.1-1.7-0.2-3.5,1.5-4.6C441.4,152.8,443.2,155.1,440.3,155.9z"/>
	<path class="st12" d="M302,59.3c0.1,1.5,0.2,2.9,0.2,4.4C300,62.4,300.7,60.9,302,59.3z"/>
	<path class="st11" d="M64.7,42c0.7-3.1-1.2-4-3.7-4.5C65.9,37.4,66.4,37.9,64.7,42z"/>
	<path class="st11" d="M305.4,133.4c0.7-0.4,1.3-0.8,2-1.3c0.6,0,1.2-0.1,1.8-0.1c0,1,0.6,1.4,1.5,1.5c-0.6,0.6-1.3,0.7-2.1,0.7
		C307.7,133,306.4,133.6,305.4,133.4z"/>
	<path class="st13" d="M171.9,110.5c0.1,2.2,0.2,4.3-2.7,4.6C170.1,113.6,171,112.1,171.9,110.5z"/>
	<path class="st11" d="M313.7,130.4c1.6-1,3.4-1.5,5.2-1.5c-0.2,0.5-0.5,1-0.8,1.5l0,0C316.7,130.4,315.2,130.4,313.7,130.4z"/>
	<path class="st11" d="M98.4,48c-0.3,1.4,0.5,2.3,1.5,3c-1-0.1-2.3,0.4-2.8-1C96.8,48.9,97.1,48.1,98.4,48z"/>
	<path class="st11" d="M181,103.4c-1.7,0.1-3.2-0.3-4.6-1.4c1.5,0,3,0,4.6,0l0,0C180.9,102.4,181,102.9,181,103.4z"/>
	<path class="st11" d="M110.5,129.6c0.7,1.7,1.4,3.4,1.4,5.3C109.4,133.7,110.8,131.4,110.5,129.6z"/>
	<path class="st12" d="M460,72c0,1.5-0.3,2.8-1.6,3.7C458.7,74.4,457.4,72.4,460,72z"/>
	<path class="st12" d="M338.3,182c-0.9,1.7-2.4,0.5-3.6,0.7c0.2-0.4,0.5-0.8,0.7-1.3l0,0C336.4,181.5,337.5,181,338.3,182z"/>
	<path class="st6" d="M394.9,88.4c-0.3-1.7-0.6-3.4-0.9-5.2C396,84.6,395.6,86.5,394.9,88.4z"/>
	<path class="st11" d="M495.8,57c-1.2-0.1-2.2-0.7-3.1-1.5c0.1-0.1,0.2-0.2,0.3-0.2c0.6,0.1,1-0.1,1.3-0.6l0,0
		C497.2,54,495.3,56.3,495.8,57z"/>
	<path class="st11" d="M437.4,157.4c-0.9-0.1-1.5-0.5-1.5-1.5c1.5-0.2,2.8,1.2,4.3,0.3C439.8,158,438.4,157.2,437.4,157.4z"/>
	<path class="st11" d="M105.3,148.5c-1.1,1.1-2.3,1.5-3.8,1.4C102,147.5,103.9,148.7,105.3,148.5z"/>
	<path class="st10" d="M288.9,148.4c0.5,0.1,0.9,0.1,1.4,0.2c0,0.9,0,1.9,0,2.8C288.4,151.1,289.1,149.5,288.9,148.4z"/>
	<path class="st6" d="M395.3,67.3c0,0.5,0,1-0.6,1.2c-0.7,0.2-0.7-0.5-0.8-1c-0.1-0.5,0-1,0.6-1.2C395.3,66.2,395.2,66.9,395.3,67.3
		z"/>
	<path class="st12" d="M61,73.5c0.5-0.5,1-1,1.6-1.5c0.6,0.1,1.4,0.4,1,1C63,73.7,62.1,74.7,61,73.5z"/>
	<path class="st11" d="M423.9,127.4c0,0.5,0,1,0,1.5c-0.1,0.2-0.2,0.3-0.2,0.5c-0.4,0.6-0.9,1.2-1.3,1.9
		C422.7,129.9,421.5,128,423.9,127.4z"/>
	<path class="st12" d="M268.8,179.8c1.4,0.1,2.7,0.5,3.7,1.5C271.1,181.1,269.1,182.4,268.8,179.8z"/>
	<path class="st12" d="M303.9,179.9c0,1,0.1,2,0.1,3c-0.8-0.1-1.4-0.3-1.5-1.2C302.4,180.6,302.9,180,303.9,179.9z"/>
	<path class="st12" d="M366.1,164.9c-1.1,0.8-2.3,1.3-3.7,1.3C363,164,364.8,165.2,366.1,164.9z"/>
	<path class="st11" d="M456.2,143.8c1.4,0.6,2,1.7,2.2,3.1C456.4,146.8,456.9,144.9,456.2,143.8z"/>
	<path class="st11" d="M476.4,137.9c-1.2-0.7-1.6-1.7-1.6-3C476.9,135.1,476.3,136.7,476.4,137.9z"/>
	<path class="st12" d="M462.7,65.2c0.2,1.3-0.2,2.3-1.3,3C461.5,67,460.9,65.6,462.7,65.2z"/>
	<path class="st12" d="M297.1,193.9c-0.1-1.4-0.2-2.8-0.3-4.2C297.5,191,297.8,192.4,297.1,193.9z"/>
	<path class="st12" d="M461.3,69c0.1,1.3,0,2.4-1.3,3.1C460,70.8,459.3,69.4,461.3,69z"/>
	<path class="st6" d="M368.5,62.7c0.9,0.9,1.2,2.1,1.4,3.2C367.7,65.6,368.6,64,368.5,62.7z"/>
	<path class="st13" d="M82.1,100.1c-0.2-1.5-0.2-2.8,1.5-3.4C83.6,98.1,83.1,99.2,82.1,100.1z"/>
	<path class="st12" d="M370,163.5c-0.9,0.8-1.9,1.3-3.1,1.3C367.3,162.8,368.8,163.5,370,163.5z"/>
	<path class="st12" d="M105.9,185.8c0.8-0.8,1.9-1.3,3.1-1.3C108.6,186.4,107.1,185.8,105.9,185.8z"/>
	<path class="st6" d="M360.8,92.2c0.1-1.2,0.6-2.2,1.6-3.1C362.5,90.4,362.3,91.6,360.8,92.2z"/>
	<path class="st11" d="M197.4,102.6c1-0.6,1.9-1.2,2.8-1.8C200.5,103.3,198.8,102.7,197.4,102.6z"/>
	<path class="st12" d="M319.7,185.2c-1.5,0.6-3,0.7-4.6,0.6C316.6,184.6,318.2,185.2,319.7,185.2z"/>
	<path class="st6" d="M375.9,97.4c-0.2,0.8-0.8,1.2-1.5,1.5c-2.3-0.8,0.7-1.1,0.2-1.8C375,97.2,375.4,97.3,375.9,97.4z"/>
	<path class="st12" d="M325,184.4c-1.2,0.7-2.5,0.7-3.8,0.6C322.3,184,323.7,184.5,325,184.4z"/>
	<path class="st1" d="M59.6,35.6c1.2-0.4,2.4-0.6,3.5,0.2c-0.7,0.1-1.5,0.2-2.2,0.2C60.5,35.8,60.1,35.7,59.6,35.6z"/>
	<path class="st6" d="M362.5,88.5c0-1.1,0.5-1.9,1.2-2.7C363.9,86.9,364.2,88.1,362.5,88.5z"/>
	<path class="st12" d="M265.7,178.2c1.2,0.1,2.2,0.6,3.1,1.6C267.3,180,266.2,179.7,265.7,178.2z"/>
	<path class="st11" d="M112,135.6c0.5,0.3,1,0.6,1.5,0.9c-0.2,0.5-0.2,1.3-1,0.9C111.8,137.1,112,136.3,112,135.6z"/>
	<path class="st6" d="M359.4,94.4c0-1.1,0.7-1.7,1.4-2.3C360.9,93.2,361,94.3,359.4,94.4z"/>
	<path class="st12" d="M265.7,181.2c-0.5,0.1-1,0.2-1.5,0.3c0.1-0.5,0-1.3,0.8-1.2C265.2,180.2,265.4,180.9,265.7,181.2z"/>
	<path class="st11" d="M422.4,134.2c1.1,0,2.1-0.1,3,0.7C424.3,134.9,423.2,135.3,422.4,134.2z"/>
	<path class="st11" d="M200.3,97.6c-0.4-0.7-0.2-1.8-1.3-1.9C201.3,95.1,200.3,96.7,200.3,97.6z"/>
	<path class="st11" d="M207.1,134.1c-1.1,0-2.1,0.1-3-0.5C205.1,133.5,206.2,133.1,207.1,134.1z"/>
	<path class="st11" d="M474.9,133.4c0.1-0.5,0.1-1,0.7-1.1c0.1,0,0.4,0.3,0.4,0.4C475.9,133.3,475.3,133.3,474.9,133.4
		C474.9,133.4,474.9,133.4,474.9,133.4z"/>
	<path class="st11" d="M185.2,61.5c-0.8,0.6-1.7,0.7-2.7,0.6c0-0.2,0-0.4-0.1-0.6l0,0C183.4,61.5,184.3,61.5,185.2,61.5z"/>
	<path class="st11" d="M422.3,131.9c-0.1,0.7-0.2,1.4-0.4,2.1C420.1,133,420.8,132.4,422.3,131.9z"/>
	<path class="st6" d="M389.5,61.5c0-0.5,0-1,0-1.5c0.5,0.1,1,0.1,1,0.7C390.6,61.3,390,61.4,389.5,61.5z"/>
	<path class="st12" d="M399.9,57c0.4,0,0.8,0,1.2,0c0.1,0.5,0.2,0.9,0.3,1.3C400.5,58.5,400,58,399.9,57z"/>
	<path class="st12" d="M112.8,185.9c-0.4,0.6-0.4,1.6-1.5,1.3C111.3,186.3,111.8,185.9,112.8,185.9z"/>
	<path class="st11" d="M107.4,148.5c-0.5,0-1-0.1-1.5-0.1c0.2-0.4,0.4-1,0.7-1C107.4,147.2,107.4,147.9,107.4,148.5z"/>
	<path class="st11" d="M174.8,101.6c-0.4,0.6-0.9,1.3-1.3,1.9C173.6,102.7,172.7,101.1,174.8,101.6z"/>
	<path class="st11" d="M213.8,135.6c-0.8,0.1-1.6,0-2.2-0.6C212.4,134.9,213.2,134.8,213.8,135.6z"/>
	<path class="st11" d="M186.3,102.3c0.8-0.2,1.5-0.2,2.2,0.3C187.7,102.8,187,102.9,186.3,102.3z"/>
	<path class="st12" d="M333.2,182.9c-0.7,0.5-1.4,0.7-2.3,0.5C331.6,182.7,332.4,182.9,333.2,182.9z"/>
	<path class="st12" d="M109.7,184.3c0.6-0.6,1.3-0.9,2.2-0.9C111.5,184.6,110.6,184.4,109.7,184.3z"/>
	<path class="st12" d="M329.5,183.7c-0.7,0.6-1.5,0.6-2.3,0.5C327.8,183.5,328.7,183.6,329.5,183.7z"/>
	<path class="st12" d="M107.3,188.1c-0.6,0.6-1.3,0.8-2.1,0.7C105.7,188,106.5,188.1,107.3,188.1z"/>
	<path class="st11" d="M319.8,130.5c-0.1,1.4-0.9,0.9-1.6,0.5c0-0.2,0-0.5-0.1-0.7l0,0C318.7,130.5,319.3,130.5,319.8,130.5z"/>
	<path class="st12" d="M218.8,90.8c-0.8,0.6-1.7,0.6-2.6,0.5C216.9,90.5,217.9,90.7,218.8,90.8z"/>
	<path class="st12" d="M131.5,170.8c-0.8-0.1-1.3-0.6-1.6-1.3C130.9,169.4,131.4,169.8,131.5,170.8z"/>
	<path class="st12" d="M386.5,158.4c-0.5,0.2-1.1,0.5-1.6,0.8C385.2,158.3,385.8,158.2,386.5,158.4z"/>
	<path class="st11" d="M360.8,63c-0.6-0.2-0.8-0.8-0.9-1.4C360.8,61.7,360.9,62.3,360.8,63z"/>
	<path class="st11" d="M178.7,100.4c0.5,0.3,0.9,0.5,1.4,0.8C179.5,101.2,179,101,178.7,100.4z"/>
	<path class="st11" d="M190.2,138.7c-0.1-0.3-0.1-0.5-0.2-0.8c0.3,0.1,0.6,0.2,0.9,0.3C190.7,138.4,190.4,138.5,190.2,138.7z"/>
	<path class="st11" d="M108.8,149.5c-0.4-0.4-0.9-0.7-1.3-1.1C108.2,148.4,108.8,148.6,108.8,149.5z"/>
	<path class="st11" d="M305.5,142.5c-0.2,0.7-0.8,0.9-1.4,1.1C304.1,142.6,304.7,142.5,305.5,142.5z"/>
	<path class="st11" d="M399.6,51.1c-0.1,0.4-0.1,0.8-0.2,1.2C399,51.8,399.1,51.4,399.6,51.1z"/>
	<path class="st11" d="M343.8,131.2c0.3-0.5,0.8-0.5,1.3-0.3C344.6,131,344.2,131.1,343.8,131.2z"/>
	<path class="st11" d="M64.2,42.8c-0.1-0.4,0.1-0.7,0.5-0.8C64.5,42.2,64.4,42.5,64.2,42.8z"/>
	<path class="st12" d="M114.8,185.1l-0.2,0.2l-0.2-0.1C114.5,185.1,114.6,185.1,114.8,185.1z"/>
	<path class="st12" d="M438.1,158.9c-0.3-0.2-0.6-0.4-0.9-0.6C437.5,158.5,437.8,158.7,438.1,158.9z"/>
	<path class="st11" d="M360,61.6c-0.2-0.3-0.5-0.6-0.7-0.9C359.5,61,359.8,61.3,360,61.6z"/>
	<path class="st12" d="M296.4,187.7c-0.2-0.1-0.4-0.2-0.6-0.3C296,187.4,296.2,187.5,296.4,187.7z"/>
	<path class="st11" d="M267.4,144.8c0.1,0.2,0.1,0.3-0.1,0.5C267.3,145,267.3,144.9,267.4,144.8z"/>
	<path class="st11" d="M474.6,134.5c-0.2-0.3-0.5-0.6-0.8-0.9c0.3-0.1,0.7-0.1,1-0.2l0,0C474.8,133.8,474.7,134.1,474.6,134.5z"/>
	<path class="st12" d="M270.2,182.7c-0.4-0.2-0.7-0.3-1.1-0.5C269.4,182.4,269.8,182.6,270.2,182.7z"/>
	<path class="st12" d="M149.4,52.4c0.1-0.1,0.1-0.2,0.2-0.3C149.6,52.3,149.5,52.4,149.4,52.4L149.4,52.4z"/>
	<path class="st12" d="M111.8,183.5c0.3-0.2,0.6-0.3,0.9-0.5C112.4,183.2,112.1,183.4,111.8,183.5z"/>
	<path class="st11" d="M180.9,101.3c0.4,0.1,0.8,0.2,1.2,0.3c-0.4,0.1-0.8,0.2-1.2,0.3l0,0C180.9,101.8,180.9,101.5,180.9,101.3z"/>
	<path class="st12" d="M320.4,65.2c0,7.2,0,14.4,0,21.6c-1.1-6.7-0.4-13.6-1.1-20.3C319.3,65.9,319.7,65.4,320.4,65.2z"/>
	<path class="st13" d="M428.3,108.1c-0.8-2-0.5-4.1-0.6-6.2c4.1-0.7,8.2-1.1,12.4,0c-2.3,0.1-4.4,0.8-6.8,0.3
		c-2.7-0.6-4.3,1.5-4.2,4.4C429,107.2,428.7,107.7,428.3,108.1z"/>
	<path class="st13" d="M457.2,130.5c-3,1.4-6,2.7-9.3,3C450.6,131.3,453.7,130.3,457.2,130.5z"/>
	<path class="st0" d="M318.2,130.4c0,0.2,0,0.4,0.1,0.7c-2.5,0.8-5,1.6-7.6,2.4c-0.9-0.1-1.5-0.5-1.5-1.5c0.2-0.1,0.4-0.2,0.6-0.2
		c1.4-0.2,3.3,1,3.9-1.4l0,0C315.2,130.4,316.7,130.4,318.2,130.4z"/>
	<path class="st11" d="M313.7,130.4c-0.6,2.4-2.5,1.2-3.9,1.4C310.9,130.9,312.2,130.5,313.7,130.4z"/>
	<path class="st0" d="M338.3,182c-0.8-0.9-1.9-0.4-2.9-0.6c0.1-1.6,1.3-1.5,2.4-1.5c1,0,2-0.1,2.1-1.4c0.4-0.1,0.9-0.1,1.3-0.2
		c1.6-0.3,3.8,1.3,4.7-1.4l0,0c1.5-0.3,3.6,1.1,4.5-1.3c0.4-0.1,0.9-0.2,1.3-0.2c1.6-0.4,3.8,1.4,4.6-1.4h0c1.5-0.4,3.7,1.3,4.5-1.5
		l0,0c1.5,0.1,3,0.3,3.8-1.4c0.2-0.1,0.4-0.2,0.6-0.1c1.5,0.1,3.1,0.4,3.9-1.4v0c1.2,0.5,3.1-0.9,3.7,1.3c-1,0.3-2,0.7-3,1
		c-0.4,0.1-0.8,0.2-1.2,0.3c-1.4,1.1-3.1,1.6-4.8,1.9c-0.8,0-1.7-0.1-2.2,0.8c-0.6,0.6-1.3,0.8-2.2,0.8c-0.9-0.1-1.8-0.1-2.4,0.8
		c-0.6,0.7-1.3,0.7-2.1,0.7c-0.6-0.1-1.2,0-1.6,0.6c-0.4,0.1-0.7,0.2-1.1,0.2c-0.4,0.2-0.8,0.3-1.2,0.5c-0.2,0.1-0.5,0.1-0.8,0.2
		c-0.9-0.1-1.7-0.1-2.3,0.7c-0.8,0.6-1.8,0.8-2.8,0.8c-0.6-0.1-1.2,0-1.6,0.5c-0.3,0.1-0.5,0.1-0.8,0.2c-0.8,0-1.7-0.1-2.2,0.8
		C340.1,182.7,339.1,181.8,338.3,182z"/>
	<path class="st12" d="M357.1,176.2c0.6-0.9,1.5-0.9,2.4-0.8C358.8,176.1,358,176.2,357.1,176.2z"/>
	<path class="st12" d="M361.6,174.7c0.5-0.8,1.4-0.8,2.2-0.8C363.2,174.5,362.5,174.7,361.6,174.7z"/>
	<path class="st12" d="M348.1,179.1c0.6-0.8,1.4-0.8,2.3-0.7C349.8,179,349,179.3,348.1,179.1z"/>
	<path class="st12" d="M340.7,181.4c0.5-0.9,1.4-0.8,2.2-0.8C342.1,180.9,341.4,181.2,340.7,181.4z"/>
	<path class="st12" d="M343.7,180.5c0.4-0.5,1-0.6,1.6-0.5C344.7,180.1,344.2,180.3,343.7,180.5z"/>
	<path class="st12" d="M353.4,177.5c0.4-0.5,0.9-0.6,1.6-0.6C354.4,177.1,353.9,177.3,353.4,177.5z"/>
	<path class="st12" d="M351.2,178.2c0.4-0.2,0.8-0.3,1.2-0.5C351.9,177.9,351.6,178.1,351.2,178.2z"/>
	<path class="st12" d="M368.6,171.9c0.4-0.1,0.8-0.2,1.2-0.3C369.6,172.1,369.2,172.4,368.6,171.9z"/>
	<path class="st11" d="M110.6,176.9c-1.6,0-3.2-0.1-4.8-0.1c3.4-1.8,6.8-3.6,10.5-4.6c0,0.5,0.1,1.1,0.1,1.6
		C114.5,174.7,113,176.8,110.6,176.9z"/>
	<path class="st10" d="M269.4,149.9c4.5-1.1,9-1.3,13.5-1.3c-0.3,1.8-1.8,1.4-2.9,1.4C276.5,149.9,272.9,149.9,269.4,149.9z"/>
	<path class="st8" d="M110.5,48c-1.2-0.2-2.2-0.7-3.1-1.5C108.7,46.5,110.2,46,110.5,48z"/>
	<path class="st8" d="M107.4,46.5c-1-0.2-2-0.5-2.7-1.4C105.9,45,107.2,44.6,107.4,46.5z"/>
	<path class="st13" d="M382.6,97.9c1.7-0.7,3.5-0.5,5.3-0.5C386.4,100,384.5,99.2,382.6,97.9z"/>
	<path class="st13" d="M255.7,92.6c-4.3,0-8.7,0-13,0C247,91.9,251.3,91.8,255.7,92.6z"/>
	<path class="st8" d="M314.4,53.1c-2.4-0.7-4.8-1.4-7.2-2.1C309.8,51.3,312.8,49.7,314.4,53.1z"/>
	<path class="st12" d="M360.8,172.4c-0.7,2.8-3,1.1-4.5,1.5C357.7,172.8,359.2,172.4,360.8,172.4z"/>
	<path class="st12" d="M345.9,176.9c-0.9,2.7-3.1,1-4.7,1.4C342.6,177.2,344.2,176.9,345.9,176.9z"/>
	<path class="st12" d="M356.3,173.8c-0.8,2.8-3.1,1.1-4.6,1.4C353.1,174.2,354.7,173.8,356.3,173.8z"/>
	<path class="st12" d="M350.4,175.5c-0.9,2.4-3,1-4.5,1.3C347.3,176,348.8,175.6,350.4,175.5z"/>
	<path class="st12" d="M369.1,169.4c-0.8,1.9-2.4,1.6-3.9,1.4C366.3,169.8,367.7,169.4,369.1,169.4z"/>
	<path class="st12" d="M364.6,170.9c-0.8,1.7-2.3,1.5-3.8,1.4C361.9,171.4,363.2,170.9,364.6,170.9z"/>
	<path class="st4" d="M191.4,67.5c0.6,2,1.2,4,3,5.2c0.1,1.4-0.3,2.8,0.6,4c2.7,3.7,2.2,8.3,3.6,12.4c0.5,1.4,0.1,2-1.4,2.3
		c-5.3,1.2-10.6,0.8-15.9-0.3c-3.5-0.8-4.9-3.1-4.9-6.8c0-6.6-2.2-12.3-7.9-16.2c-0.8-0.5-1.6-0.7-2.5-0.7c0.1-1.1,0.8-1.5,1.8-1.4
		c4.4,0.6,8.5-1.8,12.8-1.5c1,0.1,1.7-0.4,1.9-1.4C186.8,61.8,188.5,65.8,191.4,67.5z"/>
	<path class="st6" d="M182.4,61.5c0,0.2,0.1,0.4,0.1,0.6l-0.1,0.2c0,0-0.2,0-0.2,0c-0.6,0.2-1.2,0.4-1.9,0.5
		c-0.4,0.1-0.8,0.2-1.2,0.2c-1.3,0.3-2.8-0.5-4,0.6c-0.4,0-0.8,0.1-1.2,0.2c-0.8,0.2-1.7,0.3-2.5,0.5c-8.4,1-16.8,1-24.9-2
		c3.4-1.9,6.6-0.2,9.8,0.7c4.3,0,8.6,0,12.9,0c1.2,0,2.6,0.3,2.9-1.4c0.5,0,0.9-0.1,1.4-0.1C176.4,61.4,179.4,61.5,182.4,61.5z"/>
	<path class="st11" d="M175.1,63.6c1.2-1,2.7-0.3,4-0.6C177.9,63.6,176.5,63.7,175.1,63.6z"/>
	<path class="st11" d="M171.4,64.2c0.8-0.2,1.7-0.3,2.5-0.5C173.2,64.5,172.3,64.2,171.4,64.2z"/>
	<path class="st11" d="M180.4,62.8c0.6-0.2,1.2-0.4,1.9-0.5c0.1,0.2,0.1,0.4,0,0.5C181.6,62.8,181,62.8,180.4,62.8z"/>
	<path class="st11" d="M431.4,155.2c-1.5,0-3.1,0-4.6-0.1c0-0.7,0-1.4,0-2.1C428.7,153,430.7,152.8,431.4,155.2z"/>
	<path class="st0" d="M426.9,153c0,0.7,0,1.4,0,2.1c-1.3-0.3-2.6-0.6-3.8-1c-0.2-2.3,1.8-0.6,2.4-1.3
		C425.9,152.9,426.4,153,426.9,153z"/>
	<path class="st8" d="M427.6,93.8c8.1-1.5,16.2-0.4,24.3,0.5c-7.3,0-14.6,0.1-21.9,0.1C429.2,94.5,428.3,94.5,427.6,93.8z"/>
	<path class="st11" d="M172,61.5c-0.3,1.8-1.7,1.4-2.9,1.4c-4.3,0-8.6,0-12.9,0c-0.2-0.5-0.5-1-0.8-1.5
		C161,61.5,166.5,61.5,172,61.5z"/>
	<path class="st4" d="M223.5,172.2c-4.4,0-8.8,0-13.3,0c0-0.1,0-0.2,0-0.4c4.4,0,8.9,0,13.3,0C223.5,172,223.5,172.1,223.5,172.2z"
		/>
	<path class="st0" d="M199.8,167.3c0.5-1.7,1.4-0.7,2.2-0.3C201.2,167.1,200.5,167.2,199.8,167.3z"/>
	<path class="st0" d="M494.4,54.7c-0.3,0.5-0.8,0.7-1.3,0.6C493.3,54.8,493.8,54.7,494.4,54.7z"/>
	<path class="st0" d="M353.4,130.4c-0.3,0.2-0.5,0.4-0.8,0.5C352.4,130.1,353.1,130.6,353.4,130.4
		C353.4,130.4,353.4,130.4,353.4,130.4z"/>
</g>
</svg>
